<svg id="Layer_1" data-name="Layer 1" xmlns="http://www.w3.org/2000/svg" xmlns:xlink="http://www.w3.org/1999/xlink" viewBox="0 0 39.04 39.04"><defs><style>.cls-1{fill:none;}.cls-2{fill:url(#linear-gradient);}</style><linearGradient id="linear-gradient" x1="8.63" y1="20.37" x2="30.44" y2="20.37" gradientTransform="matrix(1, 0, 0, -1, 0, 39.89)" gradientUnits="userSpaceOnUse"><stop offset="0" stop-color="#44ad51"/><stop offset="1" stop-color="#3d8647"/></linearGradient></defs><g id="Layer_2" data-name="Layer 2"><g id="skolenu_smu" data-name="skolenu smu"><rect class="cls-1" width="39.04" height="39.04"/><path class="cls-2" d="M16.45,13.41c0-3.33,3.07-7.26,3.07-7.26s3.07,3.93,3.07,7.26a5.67,5.67,0,0,1-3.07,4.81A5.65,5.65,0,0,1,16.45,13.41ZM12.6,22.13a5.67,5.67,0,0,0,5.68.42,5.67,5.67,0,0,0-2-5.34c-2.67-2-7.65-1.89-7.65-1.89S9.93,20.13,12.6,22.13Zm8.7.64a5.49,5.49,0,0,0,5.14-.64c2.67-2,4-6.81,4-6.81s-5-.1-7.65,1.89a5.36,5.36,0,0,0-2.09,4.35h0v4.59H9.62c0,3.73,4.46,6.73,9.9,6.73s9.9-3,9.9-6.73H21.3Z"/></g></g></svg>