<svg id="Layer_1" data-name="Layer 1" xmlns="http://www.w3.org/2000/svg" xmlns:xlink="http://www.w3.org/1999/xlink" viewBox="0 0 39.04 39.04"><defs><style>.cls-1{fill:none;}.cls-2{fill:url(#linear-gradient);}.cls-3{fill:url(#linear-gradient-2);}.cls-4{fill:url(#linear-gradient-3);}.cls-5{fill:url(#linear-gradient-4);}</style><linearGradient id="linear-gradient" x1="8.71" y1="31.03" x2="30.34" y2="31.03" gradientTransform="matrix(1, 0, 0, -1, 0, 39.89)" gradientUnits="userSpaceOnUse"><stop offset="0" stop-color="#44ad51"/><stop offset="1" stop-color="#3d8647"/></linearGradient><linearGradient id="linear-gradient-2" x1="9.43" y1="18.99" x2="29.62" y2="18.99" xlink:href="#linear-gradient"/><linearGradient id="linear-gradient-3" x1="18.4" y1="23.79" x2="20.64" y2="23.79" xlink:href="#linear-gradient"/><linearGradient id="linear-gradient-4" x1="16.69" y1="18.24" x2="22.34" y2="18.24" xlink:href="#linear-gradient"/></defs><g id="Layer_2" data-name="Layer 2"><g id="skolenu_smu" data-name="skolenu smu"><rect class="cls-1" width="39.04" height="39.04"/><path class="cls-2" d="M30.05,8H9a.31.31,0,0,0-.29.3V9.42A.29.29,0,0,0,9,9.71H30.05a.29.29,0,0,0,.29-.29h0V8.3A.31.31,0,0,0,30.05,8Z"/><path class="cls-3" d="M9.43,26.31a.69.69,0,0,0,.69.69h9a2,2,0,1,0,.81,0h9a.69.69,0,0,0,.69-.69h0V10.85H9.43ZM20.17,29a.65.65,0,1,1-.65-.65h0A.65.65,0,0,1,20.17,29Zm-.65-15.18a2.29,2.29,0,1,1-2.29,2.29h0a2.28,2.28,0,0,1,2.28-2.28Zm-4,7.18a2.25,2.25,0,0,1,1.55-2.14h0l.6-.18a.59.59,0,0,1,.57.13L19.52,20l1.25-1.2a.59.59,0,0,1,.57-.13l.6.18h0A2.26,2.26,0,0,1,23.5,21v3a.58.58,0,0,1-.58.58H16.11a.58.58,0,0,1-.58-.58Z"/><path class="cls-4" d="M19.52,17.22A1.12,1.12,0,1,0,18.4,16.1h0A1.12,1.12,0,0,0,19.52,17.22Z"/><path class="cls-5" d="M22.34,21a1.11,1.11,0,0,0-.74-1l-.27-.08-1.41,1.34a.59.59,0,0,1-.8,0l-1.41-1.34-.27.08a1.11,1.11,0,0,0-.75,1v2.37h5.65Z"/></g></g></svg>