<svg id="Layer_1" data-name="Layer 1" xmlns="http://www.w3.org/2000/svg" xmlns:xlink="http://www.w3.org/1999/xlink" viewBox="0 0 39.04 39.04"><defs><style>.cls-1{fill:none;}.cls-2{fill:url(#linear-gradient);}.cls-3{fill:url(#linear-gradient-2);}.cls-4{fill:url(#linear-gradient-3);}.cls-5{fill:url(#linear-gradient-4);}.cls-6{fill:url(#linear-gradient-5);}.cls-7{fill:url(#linear-gradient-6);}.cls-8{fill:url(#linear-gradient-7);}.cls-9{fill:url(#linear-gradient-8);}</style><linearGradient id="linear-gradient" x1="9" y1="16.95" x2="11.83" y2="16.95" gradientTransform="matrix(1, 0, 0, -1, 0, 39.89)" gradientUnits="userSpaceOnUse"><stop offset="0" stop-color="#44ad51"/><stop offset="1" stop-color="#3d8647"/></linearGradient><linearGradient id="linear-gradient-2" x1="14.16" y1="11.24" x2="18.09" y2="11.24" xlink:href="#linear-gradient"/><linearGradient id="linear-gradient-3" x1="8.23" y1="13.08" x2="16.34" y2="13.08" xlink:href="#linear-gradient"/><linearGradient id="linear-gradient-4" x1="4.8" y1="22.7" x2="12.71" y2="22.7" xlink:href="#linear-gradient"/><linearGradient id="linear-gradient-5" x1="18.92" y1="9.55" x2="24.79" y2="9.55" xlink:href="#linear-gradient"/><linearGradient id="linear-gradient-6" x1="21.16" y1="24.61" x2="26.34" y2="24.61" xlink:href="#linear-gradient"/><linearGradient id="linear-gradient-7" x1="27.09" y1="31.52" x2="34.24" y2="31.52" xlink:href="#linear-gradient"/><linearGradient id="linear-gradient-8" x1="11.37" y1="22.93" x2="32.97" y2="22.93" xlink:href="#linear-gradient"/></defs><g id="Layer_2" data-name="Layer 2"><g id="skolenu_smu" data-name="skolenu smu"><rect class="cls-1" width="39.04" height="39.04"/><path class="cls-2" d="M9.1,23.66a.85.85,0,0,0,.16,1l.21.21c.61-.72,1.32-1.51,2.18-2.37l.18-.14L10.48,21C9.69,22.43,9.23,23.4,9.1,23.66Z"/><path class="cls-3" d="M16.53,27.38c-.87.86-1.65,1.58-2.37,2.19l.29.28a.85.85,0,0,0,1,.16c.45-.23,1.15-.56,2.64-1.39L16.67,27.2Z"/><path class="cls-4" d="M16.07,23c-.63-.62-2.38-.06-3.2.76a22.78,22.78,0,0,0-4.56,5.86.87.87,0,0,0,.17,1,.85.85,0,0,0,1,.16,22.77,22.77,0,0,0,5.85-4.57c.9-.9,1.35-2.6.76-3.2Z"/><path class="cls-5" d="M7.49,16.28,5.05,18.72a.88.88,0,0,0-.14,1,.86.86,0,0,0,1,.4,7.2,7.2,0,0,1,3.26-.3,50.06,50.06,0,0,1,3.57-5.45C12,14,9.57,14.21,7.49,16.28Z"/><path class="cls-6" d="M19.4,34.14a.84.84,0,0,0,1-.16l2.44-2.44c1.89-1.88,2.22-4.32,1.8-5.09A51.54,51.54,0,0,1,19.18,30a10.53,10.53,0,0,1-.25,3.26A.85.85,0,0,0,19.4,34.14Z"/><path class="cls-7" d="M21.92,13.45a2.59,2.59,0,1,0,3.66,0h0A2.59,2.59,0,0,0,21.92,13.45Z"/><path class="cls-8" d="M34.19,5.64a.85.85,0,0,0-.8-.79,17.22,17.22,0,0,0-6.3.73,7.2,7.2,0,0,0,2.15,4.21,7.2,7.2,0,0,0,4.29,2.14A17.82,17.82,0,0,0,34.19,5.64Z"/><path class="cls-9" d="M28,11a9,9,0,0,1-2.59-4.83c-5.16,2.13-10.12,6.77-14,13.29l2,1.94a3.7,3.7,0,0,1,4,.34c1.06,1,.88,2.64.34,4l2,2c5-3,10.85-7.78,13.33-14.11A9,9,0,0,1,28,11Zm-1.2,7.33a4.31,4.31,0,1,1,0-6.1A4.32,4.32,0,0,1,26.8,18.33Z"/></g></g></svg>