<svg id="Layer_1" data-name="Layer 1" xmlns="http://www.w3.org/2000/svg" xmlns:xlink="http://www.w3.org/1999/xlink" viewBox="0 0 39.04 39.04"><defs><style>.cls-1{fill:none;}.cls-2{fill:url(#linear-gradient);}.cls-3{fill:url(#linear-gradient-2);}</style><linearGradient id="linear-gradient" x1="11.09" y1="21.9" x2="32.12" y2="21.9" gradientTransform="matrix(1, 0, 0, -1, 0, 39.89)" gradientUnits="userSpaceOnUse"><stop offset="0" stop-color="#44ad51"/><stop offset="1" stop-color="#3d8647"/></linearGradient><linearGradient id="linear-gradient-2" x1="6.91" y1="15.9" x2="20.73" y2="15.9" xlink:href="#linear-gradient"/></defs><g id="Layer_2" data-name="Layer 2"><g id="skolenu_smu" data-name="skolenu smu"><rect class="cls-1" width="39.04" height="39.04"/><path class="cls-2" d="M30.25,9.29H13a1.87,1.87,0,0,0-1.87,1.87V21.9A1.87,1.87,0,0,0,13,23.77H24.88l2.7,2.72a.53.53,0,0,0,.41.19.58.58,0,0,0,.6-.58V23.77h1.66a1.87,1.87,0,0,0,1.87-1.87V11.16A1.87,1.87,0,0,0,30.25,9.29ZM15.61,18.54a1.73,1.73,0,1,1,1.73-1.73h0A1.75,1.75,0,0,1,15.61,18.54Zm6.06,0a1.73,1.73,0,1,1,1.73-1.73h0A1.75,1.75,0,0,1,21.67,18.54Zm6,0a1.73,1.73,0,1,1,1.73-1.73h0a1.74,1.74,0,0,1-1.68,1.73Z"/><path class="cls-3" d="M10,22V18.28H8.14a1.24,1.24,0,0,0-1.23,1.23v7a1.23,1.23,0,0,0,1.17,1.27H9.22V29.3a.41.41,0,0,0,.39.4.36.36,0,0,0,.28-.12l1.78-1.78h7.84a1.22,1.22,0,0,0,1.22-1.22v-1.7H13A2.93,2.93,0,0,1,10,22Z"/></g></g></svg>