<svg id="Layer_1" data-name="Layer 1" xmlns="http://www.w3.org/2000/svg" viewBox="0 0 110 39.96"><defs><style>.cls-1{fill:#008451;}.cls-2{fill:#808083;}.cls-3{fill:#89c54f;}</style></defs><g id="Layer_2" data-name="Layer 2"><g id="ikonas"><path class="cls-1" d="M36.91,24.92c-.33,0-1.24-.24-1.24-1.05a.92.92,0,0,1,.93-.9h.1a1.52,1.52,0,0,1,1.41,1A1.78,1.78,0,0,0,39,22.82c.37-1.05.3-4.73.27-6.68V13.85c0-.57,0-3.47-.06-4.2,0-.36-.15-.58-.84-.58h-.78c-.1,0-.15,0-.15-.11V8.48c0-.1,0-.16.15-.16h.25c.34,0,1,0,2.3,0,1.06,0,1.68,0,2,0h.35c.07,0,.17,0,.17.14v.44c0,.12-.05.17-.17.17h-.86c-.45,0-.61.12-.63.49s0,2.62,0,4.72v.82c0,1.59,0,2.92-.06,3.71v.68a5.43,5.43,0,0,1-.67,3c-.68,1.18-1.91,2.43-3.34,2.43Zm18.41-3.84H55c-.32,0-.8,0-1.78,0s-1.57,0-2,0h-.53c-.11,0-.17-.07-.17-.19v-.41c0-.14.1-.15.19-.15h.45c.25,0,.4,0,.47-.14a.55.55,0,0,0,0-.5c-.14-.67-.87-2.93-1.12-3.62H46.16c-.15.42-1.13,3.12-1.22,3.49V20c0,.24.2.36.58.36h.83c.09,0,.21,0,.21.16v.4c0,.13-.06.19-.17.19H46c-.37,0-.93,0-1.63,0a15.43,15.43,0,0,0-1.65,0h-.29c-.11,0-.16,0-.16-.17v-.42a.16.16,0,0,1,.16-.16h.63c.49,0,.75-.2,1-.8.12-.27,1.41-3.53,1.94-5l.67-1.75c.46-1.23,1-2.63,1.08-2.91v0a.72.72,0,0,0,0-.54A.44.44,0,0,1,47.63,9a.21.21,0,0,1,.18-.19,3.57,3.57,0,0,0,1.47-.88h0l0,0c.07-.08.13-.14.22-.14s.16.15.22.33c.16.54.57,1.73,1,3s.9,2.66,1.07,3.24c.4,1.35,1.56,4.67,1.81,5.21a1.36,1.36,0,0,0,1.18.78h.59c.15,0,.17.1.17.16v.44c0,.14-.11.16-.21.16ZM48.51,10s-.11.06-.17.25S46.55,15,46.43,15.43l3.91,0c-.19-.51-1.64-5-1.72-5.2v-.08a.19.19,0,0,0-.08-.15Z"/><path class="cls-1" d="M33.33,33.47H1.8l15.6-27h.06L33.2,33.28Zm-17.66-6H12.21v6.08c.48-.83.77-1.35,1.1-1.89Zm3.51-6H15.67v6Zm3.48-6H19.18v6h0l3.32-5.71Z"/><path class="cls-2" d="M37.27,29.1l-1.58,4.26h.6l.46-1.27h1.67l.45,1.27h.63L37.91,29.1Zm-.36,2.49.67-1.87.68,1.87Zm6.75.77-.1.36a1.06,1.06,0,0,0,0-.19l-.06-.16-1.05-3.26h-.84v4.26h.53V29.73a1.18,1.18,0,0,0,0,.2.84.84,0,0,0,0,.17l1.08,3.26h.54l1.1-3.23.06-.19a.32.32,0,0,1,.05-.19v3.63h.56V29.1h-.83Zm4.05-2.2a1.27,1.27,0,0,0-1,.44,1.86,1.86,0,0,0-.37,1.24A1.7,1.7,0,0,0,46.7,33a1.24,1.24,0,0,0,1,.43,1.36,1.36,0,0,0,.91-.29,1.27,1.27,0,0,0,.45-.81h-.55a.73.73,0,0,1-.8.63.82.82,0,0,1-.67-.27,1.07,1.07,0,0,1-.24-.75h2.25v-.23a1.62,1.62,0,0,0-.37-1.16,1.36,1.36,0,0,0-1-.45Zm-.84,1.35a.91.91,0,0,1,.22-.67.9.9,0,0,1,.64-.24.8.8,0,0,1,.62.24,1,1,0,0,1,.22.67Zm7-.92a.91.91,0,0,0-.86-.42,1.18,1.18,0,0,0-1,.49.94.94,0,0,0-.85-.49,1.08,1.08,0,0,0-1,.51v-.42h-.5v3.1h.52V31.53a.92.92,0,0,1,.21-.67.75.75,0,0,1,.58-.24.49.49,0,0,1,.46.21,1.13,1.13,0,0,1,.11.6v1.91h.52V31.53a1,1,0,0,1,.21-.67.77.77,0,0,1,.59-.24.49.49,0,0,1,.46.21,1.13,1.13,0,0,1,.11.6v1.91H54V31.41a3.84,3.84,0,0,0,0-.48.74.74,0,0,0-.16-.32Zm2.4-.46a1.16,1.16,0,0,0-1,.53V29.1h-.51v4.26h.51V33a1.19,1.19,0,0,0,1,.49,1.23,1.23,0,0,0,1-.44,1.84,1.84,0,0,0,.37-1.2,1.92,1.92,0,0,0-.37-1.22A1.25,1.25,0,0,0,56.28,30.13Zm.57,2.54a.82.82,0,0,1-.67.3.78.78,0,0,1-.68-.31,1.49,1.49,0,0,1-.24-.9c0-.77.31-1.16.92-1.16a.78.78,0,0,1,.68.31,1.53,1.53,0,0,1,.23.91,1.29,1.29,0,0,1-.23.88Zm2.7-2.54a1.27,1.27,0,0,0-1,.47,1.86,1.86,0,0,0-.37,1.24A1.75,1.75,0,0,0,58.51,33a1.28,1.28,0,0,0,1,.43,1.36,1.36,0,0,0,.91-.29,1.23,1.23,0,0,0,.45-.81h-.52a.72.72,0,0,1-.79.63.82.82,0,0,1-.68-.27,1.07,1.07,0,0,1-.23-.75h2.24v-.23a1.74,1.74,0,0,0-.37-1.17,1.39,1.39,0,0,0-1-.44Zm-.85,1.35a.87.87,0,0,1,.24-.67.83.83,0,0,1,.63-.24.77.77,0,0,1,.62.24,1,1,0,0,1,.22.67Zm3.38-.72v-.5h-.51v3.1h.52V31.64c0-.6.28-.9.86-.9h.12V30.2h-.14a.86.86,0,0,0-.9.61Zm4.41-.67a1.39,1.39,0,0,0-1.09.43,2.1,2.1,0,0,0,0,2.44,1.6,1.6,0,0,0,2.18,0,2.1,2.1,0,0,0,0-2.44,1.41,1.41,0,0,0-1.14-.39Zm.68,2.54a.85.85,0,0,1-.68.3.82.82,0,0,1-.67-.3,1.71,1.71,0,0,1,0-1.77.82.82,0,0,1,.67-.3.85.85,0,0,1,.68.3A1.75,1.75,0,0,1,67.17,32.63ZM69.39,29c-.46,0-.67.26-.67.78v.46h-.51v.42h.51v2.7h.52v-2.7h.56V30.2h-.56v-.27a.67.67,0,0,1,.07-.37.25.25,0,0,1,.26-.11h.23V29h-.19Zm4,3v.44a.57.57,0,0,1-.64.57.62.62,0,0,1-.52-.19,1,1,0,0,1-.19-.61V32h-.55v.18q0,1.35,1.23,1.35a1.26,1.26,0,0,0,.93-.32,1.36,1.36,0,0,0,.3-1V29.1h-.56Zm2.58-2.85-1.59,4.26h.59l.45-1.27h1.67l.46,1.27h.63L76.56,29.1Zm-.36,2.49.67-1.88.68,1.88Zm8.1.9-.93-3.38h-.61l-.91,3.38-.86-3.38H79.8l1.11,4.26h.55l.93-3.52,1,3.52h.57l1.13-4.26h-.55Zm3.19-2.36a1.4,1.4,0,0,0-1.1.43,2.1,2.1,0,0,0,0,2.44A1.61,1.61,0,0,0,88,33a2.1,2.1,0,0,0,0-2.44A1.42,1.42,0,0,0,86.87,30.13Zm.67,2.54a1,1,0,0,1-1.36,0l-.05,0a1.71,1.71,0,0,1,0-1.77,1,1,0,0,1,1.36,0l.05,0A1.75,1.75,0,0,1,87.54,32.67Zm1.92-1.86v-.55H89v3.1h.52V31.64c0-.6.28-.9.86-.9h.12V30.2h-.14A.86.86,0,0,0,89.46,30.81Zm1.46,2.55h.52V29.1h-.52Zm3.53-2.7a1.3,1.3,0,0,0-1.83-.19,1.7,1.7,0,0,0-.19.19,1.79,1.79,0,0,0-.37,1.22,1.71,1.71,0,0,0,.37,1.19,1.2,1.2,0,0,0,1,.45,1.27,1.27,0,0,0,1-.49v.39H95V29.1h-.51Zm-.23,2a.8.8,0,0,1-.67.31.85.85,0,0,1-.68-.3,1.34,1.34,0,0,1-.25-.84,1.48,1.48,0,0,1,.25-.91.81.81,0,0,1,.67-.32q.93,0,.93,1.17a1.49,1.49,0,0,1-.23.89Zm4.21-.06-.61-2.37h-.6l-.61,2.37-.67-2.37h-.55l.93,3.1h.52L97.52,31l.67,2.39h.53l1-3.09h-.53Zm1.65.73h.52v-3.1h-.52Zm0-3.68h.52v-.59h-.52Zm3.53,1a1.3,1.3,0,0,0-1.83-.2,1.26,1.26,0,0,0-.2.2,1.87,1.87,0,0,0-.37,1.21,1.84,1.84,0,0,0,.37,1.2,1.3,1.3,0,0,0,2,0v.39h.51V29.1h-.51Zm-.23,2a.8.8,0,0,1-.67.31.85.85,0,0,1-.68-.3,1.39,1.39,0,0,1-.25-.84,1.48,1.48,0,0,1,.25-.91.81.81,0,0,1,.67-.32q.93,0,.93,1.17a1.49,1.49,0,0,1-.22.92Zm4.19-1a1.68,1.68,0,0,0-.36-1.16,1.38,1.38,0,0,0-1-.4,1.24,1.24,0,0,0-1,.44,1.83,1.83,0,0,0-.37,1.24,1.76,1.76,0,0,0,.37,1.19,1.29,1.29,0,0,0,1,.43,1.42,1.42,0,0,0,.91-.29,1.28,1.28,0,0,0,.45-.81H107a.73.73,0,0,1-.8.63.88.88,0,0,1-.67-.27,1.12,1.12,0,0,1-.24-.76h2.24Zm-2.25-.2a.91.91,0,0,1,.24-.67.93.93,0,0,1,1.25,0,1,1,0,0,1,.21.67Z"/><path class="cls-3" d="M87.13,21.29c-.21,0-.32-.19-.4-.39l-1.39-3.6-.14-.39c-.24-.67-.68-1.85-.77-2.06-.21-.49-.38-.67-.67-.67H83.4c-.13,0-.13-.14-.13-.21v-.31c0-.16.06-.17.22-.17h.23c.22,0,.57,0,1.26,0a11,11,0,0,0,1.35,0h.27c.16,0,.21,0,.21.17V14c0,.08,0,.21-.15.21H86.3a.28.28,0,0,0-.29.26v.05a14.87,14.87,0,0,0,.57,2.08c.1.33.87,2.39,1.06,2.76h0c.54-1.35,1.53-3.8,1.68-4.41a.75.75,0,0,0,0-.62.32.32,0,0,0-.26-.12h-.36c-.06,0-.1-.07-.1-.2v-.32c0-.07,0-.16.14-.16h.34c.25,0,.58,0,1.08,0a7,7,0,0,0,1,0h.24c.16,0,.19,0,.19.18V14c0,.12,0,.2-.12.2h-.34a.65.65,0,0,0-.53.19,17.51,17.51,0,0,0-1.42,2.84c-.22.55-1.54,3.53-1.61,3.65S87.34,21.29,87.13,21.29ZM102,21.24A1.36,1.36,0,0,1,100.69,20a3.61,3.61,0,0,1-1.76,1.11,3.45,3.45,0,0,1-1.06.11c-.38,0-1.09-.31-1.09-1.51,0-1,.54-1.62,1.79-2.17a11.73,11.73,0,0,0,2-1V15.28a1.63,1.63,0,0,0-.23-.84,1.36,1.36,0,0,0-1.05-.38,1.91,1.91,0,0,0-1.13.37c-.17.15-.14.32-.11.52a1.31,1.31,0,0,1,0,.28c0,.72-.3,1-1,1-.31,0-.46-.19-.46-.59A2.26,2.26,0,0,1,97.89,14a4,4,0,0,1,2.19-.63,1.86,1.86,0,0,1,1.44.49,1.59,1.59,0,0,1,.4,1.28v3.77c0,1.17.29,1.3.51,1.3a.82.82,0,0,0,.6-.25c0-.06.08-.11.14-.11h.08l.18.14c.08.09.08.2,0,.36a1.51,1.51,0,0,1-1.42.88Zm-1.44-4.1a3.51,3.51,0,0,1-.6.33c-.77.37-1.73.84-1.73,1.93a.86.86,0,0,0,.75,1h.15c.52,0,1.43-.62,1.43-1.07Zm-20.16,4.1a1.84,1.84,0,0,1-1.75-1.54c0-.46,0-1.25,0-1.84V16.8c0-.32,0-1.52,0-2.26H77.64c-.18,0-.29-.09-.29-.25s.1-.21.29-.32a8.07,8.07,0,0,0,2-2.25.27.27,0,0,1,.28-.2c.13,0,.2.11.2.3l0,1.76h2.45a.16.16,0,0,1,.14.08.15.15,0,0,1,0,.13l-.18.61a.16.16,0,0,1-.18.16H80V18.8c0,1.43.68,1.54.9,1.54a2.44,2.44,0,0,0,1.16-.23.2.2,0,0,1,.11,0,.16.16,0,0,1,.14.08l.09.16a.17.17,0,0,1,0,.23,3,3,0,0,1-2,.72Zm-4.72,0A1.36,1.36,0,0,1,74.37,20a3.61,3.61,0,0,1-1.76,1.11,3.42,3.42,0,0,1-1.06.11c-.37,0-1.09-.31-1.09-1.51,0-1,.54-1.62,1.8-2.17a12,12,0,0,0,2-1V15.29a1.69,1.69,0,0,0-.23-.85,1.35,1.35,0,0,0-1-.38,1.94,1.94,0,0,0-1.14.37c-.17.15-.14.32-.11.52a1.31,1.31,0,0,1,0,.28c0,.72-.3,1-1,1-.31,0-.45-.19-.45-.59A2.26,2.26,0,0,1,71.58,14a4,4,0,0,1,2.18-.63,1.88,1.88,0,0,1,1.45.49,1.63,1.63,0,0,1,.4,1.28v3.77c0,1.17.29,1.3.51,1.3a.8.8,0,0,0,.6-.25c0-.07.09-.11.14-.11h.07l.18.14c.09.09.08.2,0,.36a1.5,1.5,0,0,1-1.41.88Zm-1.43-4.1a4,4,0,0,1-.61.33c-.77.37-1.72.84-1.72,1.93a.85.85,0,0,0,.74,1h.16c.52,0,1.43-.62,1.43-1.07Zm-5.55,3.94h0c-.21,0-1.55,0-3.2,0H58.9c-.14,0-.17-.05-.17-.16v-.44c0-.1,0-.16.15-.16h.86c.67,0,.74-.24.74-.45v-1.6c0-1.48,0-3.56,0-4.25V13c0-1.18,0-3-.06-3.34,0-.47-.13-.62-.63-.62H59c-.15,0-.15-.15-.15-.21V8.48c0-.1,0-.16.15-.16h.26c.33,0,1,0,2,0,1.35,0,2.06,0,2.42,0h.22c.15,0,.18.07.18.17V8.9c0,.13-.07.17-.21.17h-1c-.52,0-.6.15-.6.68v.77c0,.94,0,2.52,0,3.37v1.54c0,.67,0,4.18.05,4.87h2.61a17.84,17.84,0,0,0,1.83,0c1-.16,2.09-2.26,2.34-3a.12.12,0,0,1,.12-.1h.07l.28.11c.07,0,.07.08,0,.19s-.75,3-.87,3.54h0Zm27.17,0h-.3c-.33,0-.88,0-1.41,0-.72,0-1.27,0-1.6,0h-.32a.14.14,0,0,1-.17-.12v-.4c0-.15.11-.17.2-.17h.87c.18,0,.24-.05.26-.33V15.82c0-.54-.07-.89-1-1-.11,0-.18,0-.18-.15v-.16c0-.08.06-.12.14-.15a13.79,13.79,0,0,0,1.92-.87.74.74,0,0,1,.35-.1.09.09,0,0,1,.09,0,.26.26,0,0,1,0,.21c0,.3,0,1.44,0,2.9V20c0,.34.08.44.25.44h.82c.15,0,.21.05.21.19v.3c0,.15,0,.21-.19.21Zm-2.23-9.72a1,1,0,0,1-1-1,1,1,0,0,1,1.07-1h0a.91.91,0,0,1,1,.86v0a1,1,0,0,1-1,1Z"/><path class="cls-3" d="M108.2,10.55a2.51,2.51,0,0,1-5,0,2.39,2.39,0,0,1,2.38-2.42h.12a2.34,2.34,0,0,1,2.5,2.17A2.09,2.09,0,0,1,108.2,10.55Zm-.45,0a2.06,2.06,0,1,0-2.06,2A2.05,2.05,0,0,0,107.75,10.55Zm-3-.44V9.49c0-.13-.06-.19-.23-.19h-.07V9.14h1.23a1.23,1.23,0,0,1,.81.24.56.56,0,0,1,.21.46.8.8,0,0,1-.73.79h0a.3.3,0,0,1,.17.12c.13.17.24.34.35.51a1.44,1.44,0,0,0,.36.42.48.48,0,0,0,.31.07h0v.15h-.81a1,1,0,0,1-.18-.22,5,5,0,0,0-.3-.45,2.9,2.9,0,0,0-.27-.41.37.37,0,0,0-.27-.15h-.17v.87c0,.05,0,.16.13.16h.17v.2h-1.13v-.15h.09c.14,0,.23,0,.23-.23Zm.48.37h.28a.66.66,0,0,0,.67-.63.52.52,0,0,0-.21-.41.86.86,0,0,0-.54-.16h-.21Z"/></g></g></svg>