<svg xmlns="http://www.w3.org/2000/svg" xmlns:xlink="http://www.w3.org/1999/xlink" viewBox="0 0 26.14 26.14"><defs><style>.cls-1{fill:url(#linear-gradient);}.cls-2{fill:url(#linear-gradient-2);}.cls-3{fill:url(#linear-gradient-3);}.cls-4{fill:url(#linear-gradient-4);}.cls-5{fill:url(#linear-gradient-5);}.cls-6{fill:none;}</style><linearGradient id="linear-gradient" x1="12.91" y1="20.48" x2="23.08" y2="20.48" gradientUnits="userSpaceOnUse"><stop offset="0" stop-color="#44ad51"/><stop offset="1" stop-color="#3d8647"/></linearGradient><linearGradient id="linear-gradient-2" x1="3.06" y1="11.82" x2="20.17" y2="11.82" xlink:href="#linear-gradient"/><linearGradient id="linear-gradient-3" x1="5.6" y1="9.5" x2="17.25" y2="9.5" xlink:href="#linear-gradient"/><linearGradient id="linear-gradient-4" x1="5.6" y1="12.86" x2="17.25" y2="12.86" xlink:href="#linear-gradient"/><linearGradient id="linear-gradient-5" x1="7" y1="16.23" x2="13.12" y2="16.23" xlink:href="#linear-gradient"/></defs><title>1</title><g id="Layer_2" data-name="Layer 2"><g id="ikonas"><path class="cls-1" d="M22.33,17.8c-1.19,1.19-3.7,3.62-4.89,4.81a.53.53,0,0,1-.81,0l-.26-.26-1.23-1.23a.53.53,0,0,1,.23-.89.53.53,0,0,1,.55.17L17,21.54c1.15-1.14,3.44-3.58,4.56-4.7l0,0a5.19,5.19,0,1,0,.71.92Z"/><path class="cls-2" d="M6,20.79a.93.93,0,0,1-1-.67,1.4,1.4,0,0,1,0-.41q0-4.08,0-8.15t0-8.17a1,1,0,0,1,.52-.95A1.18,1.18,0,0,1,6,2.32h7.6a.94.94,0,0,1,1,1c0,.47,0,.94,0,1.4a.94.94,0,0,0,1,1H17.1a1,1,0,0,1,1.08,1.08q0,2.29,0,4.59,0,.86,0,1.72l.47,0a7.61,7.61,0,0,1,1.52.15q0-3.41,0-6.81a2.65,2.65,0,0,0-.88-2c-1-.94-2-1.89-3-2.83A3.21,3.21,0,0,0,15.27.8L14.53.55H3.8L3.54.67a.86.86,0,0,0-.47.72c0,.17,0,.35,0,.52q0,10,0,20.05a1.08,1.08,0,0,0,.24.8,1,1,0,0,0,.65.32h7.52a7.55,7.55,0,0,1-.39-2.3Z"/><path class="cls-3" d="M16.48,8.79H6.24a.69.69,0,0,0-.61.89.7.7,0,0,0,.74.5H16.49l.2,0a.69.69,0,0,0,.54-.88A.68.68,0,0,0,16.48,8.79Z"/><path class="cls-4" d="M17.22,13a.68.68,0,0,0-.21-.72.82.82,0,0,0-.6-.17H6.24a.67.67,0,0,0-.63.62.68.68,0,0,0,.5.74,1.34,1.34,0,0,0,.36,0h9.64a7.49,7.49,0,0,1,1-.29A.67.67,0,0,0,17.22,13Z"/><path class="cls-5" d="M7.76,15.53H7.6A.68.68,0,0,0,7,16.1a.7.7,0,0,0,.76.82h4.3a7.59,7.59,0,0,1,1-1.4Z"/><rect class="cls-6" width="26.14" height="26.14"/></g></g></svg>