<svg xmlns="http://www.w3.org/2000/svg" xmlns:xlink="http://www.w3.org/1999/xlink" viewBox="0 0 26.14 26.14"><defs><style>.cls-1{fill:url(#linear-gradient);}.cls-2{fill:none;}</style><linearGradient id="linear-gradient" x1="3.18" y1="13.07" x2="22.97" y2="13.07" gradientUnits="userSpaceOnUse"><stop offset="0" stop-color="#44ad51"/><stop offset="1" stop-color="#3d8647"/></linearGradient></defs><title>10</title><g id="Layer_2" data-name="Layer 2"><g id="ikonas"><path class="cls-1" d="M5.9,10.72a3.87,3.87,0,1,1,3.87,3.87A3.87,3.87,0,0,1,5.9,10.72Zm5.51,4.13H8.13a5,5,0,0,0-5,5v4.08l.28.09a22.56,22.56,0,0,0,6.74,1.09A13.84,13.84,0,0,0,16.08,24l.26-.13h0v-4A5,5,0,0,0,11.41,14.85Zm5-6A3.87,3.87,0,1,0,12.5,5,3.87,3.87,0,0,0,16.37,8.82ZM18,9.09H14.5a4.76,4.76,0,0,1-1,5.51,5.9,5.9,0,0,1,4.13,4.67,13.26,13.26,0,0,0,5.07-1.08l.26-.13h0V14A5,5,0,0,0,18,9.09Z"/><rect class="cls-2" width="26.14" height="26.14"/></g></g></svg>