<svg xmlns="http://www.w3.org/2000/svg" xmlns:xlink="http://www.w3.org/1999/xlink" viewBox="0 0 26.14 26.14"><defs><style>.cls-1{fill:url(#linear-gradient);}.cls-2{fill:none;}</style><linearGradient id="linear-gradient" x1="0.81" y1="13.07" x2="25.33" y2="13.07" gradientUnits="userSpaceOnUse"><stop offset="0" stop-color="#44ad51"/><stop offset="1" stop-color="#3d8647"/></linearGradient></defs><title>11</title><g id="Layer_2" data-name="Layer 2"><g id="ikonas"><g id="icons"><path class="cls-1" d="M8.13,23a1.2,1.2,0,0,1,.2-1.68l4.06-3.07a.41.41,0,0,0-.49-.65L6,22.12a1.22,1.22,0,0,1-1.47-1.95l5.31-4a.41.41,0,0,0-.49-.65L3.37,20a1.2,1.2,0,0,1-1.67-.27A1.2,1.2,0,0,1,1.9,18l5.94-4.49A.4.4,0,0,0,7.9,13c-.14-.18-.3-.1-.47,0L2.74,16.57a1.2,1.2,0,0,1-1.67-.27,1.2,1.2,0,0,1,.2-1.68l3.8-2.86a1,1,0,0,1,.7-.25l3.08.07c1.11,0,.84.31,2.2,1.45h0l.27.2c.74.51,2.47,1.65,2.47,1.65a.64.64,0,0,0,.92-.14.71.71,0,0,0-.25-.93l-.71-.54c-.07,0-.23-.2.07-.19l4,.12a.5.5,0,0,0,.52-.51.55.55,0,0,0-.53-.54l-2.61-.08c-.1,0-.17,0-.18-.12a.17.17,0,0,1,.17-.17l3.3.1a.5.5,0,0,0,.52-.51.55.55,0,0,0-.53-.54l-3.3-.1a.18.18,0,0,1-.18-.18.17.17,0,0,1,.17-.17l3,.09a.5.5,0,0,0,.52-.51.55.55,0,0,0-.53-.54l-3.3-.1a.18.18,0,0,1-.18-.18A.17.17,0,0,1,14.85,9L17.11,9a.5.5,0,0,0,.52-.51A.55.55,0,0,0,17.1,8l-4.7-.14h0c-1.87,0-2,.9-3.3.92H8.9l-1.68,0H6.35A1.63,1.63,0,0,1,4.62,7.33,1.45,1.45,0,0,1,6,5.77s4.61-.33,6.61-.43a7.12,7.12,0,0,1,.75,0h0c2.16.07,3.89-.11,5.06-1L20.29,3c.32-.25.64-.62,1.1,0l3.78,5a.56.56,0,0,1-.15.9c-1.95,1.55-.49.39-2,1.53-2.5,1.89-1.29,3.9-4.72,6.52l-.06,0L9.8,23.3A1.2,1.2,0,0,1,8.13,23Z"/></g><rect class="cls-2" width="26.14" height="26.14"/></g></g></svg>