<svg xmlns="http://www.w3.org/2000/svg" xmlns:xlink="http://www.w3.org/1999/xlink" viewBox="0 0 26.14 26.14"><defs><style>.cls-1{fill:url(#linear-gradient);}.cls-2{fill:url(#linear-gradient-2);}.cls-3{fill:url(#linear-gradient-3);}.cls-4{fill:url(#linear-gradient-4);}.cls-5{fill:none;}</style><linearGradient id="linear-gradient" x1="0.36" y1="10.95" x2="6.71" y2="10.95" gradientUnits="userSpaceOnUse"><stop offset="0" stop-color="#44ad51"/><stop offset="1" stop-color="#3d8647"/></linearGradient><linearGradient id="linear-gradient-2" x1="9.35" y1="11.96" x2="20.38" y2="11.96" xlink:href="#linear-gradient"/><linearGradient id="linear-gradient-3" x1="18.37" y1="12.01" x2="25.79" y2="12.01" xlink:href="#linear-gradient"/><linearGradient id="linear-gradient-4" x1="5.87" y1="14.66" x2="19.62" y2="14.66" xlink:href="#linear-gradient"/></defs><title>2</title><g id="Layer_2" data-name="Layer 2"><g id="ikonas"><path class="cls-1" d="M6.5,6.82C5.65,6,2.05,5.76.89,5.65a.39.39,0,0,0-.32.11.8.8,0,0,0-.21.42v9.54a.5.5,0,0,0,.53.53H4.06a.58.58,0,0,0,.53-.32c0-.32,1.91-5.93,2.12-8.69A.42.42,0,0,0,6.5,6.82Z"/><path class="cls-2" d="M17.84,9.36C16.78,9,15.83,8.62,15,8.3c-1.91-.85-2.75-.42-4.45,1.27A3.47,3.47,0,0,0,9.36,11.8c0,.11,0,.11.21.21.53.21,1.27.32,2-.85A.55.55,0,0,1,12,11a2,2,0,0,0,.74-.21,5.17,5.17,0,0,1,.74-.32h.21c.11,0,.32.11.42.11.53.53,1.48,1.27,2.44,2.12A24.27,24.27,0,0,1,20.28,16h.11C19.64,13.92,18.37,10.32,17.84,9.36Z"/><path class="cls-3" d="M25.26,6.71a18.58,18.58,0,0,0-6.57,1.06l-.32.32a.64.64,0,0,0,.11.42,59.68,59.68,0,0,1,3.07,8.37.7.7,0,0,0,.53.42h3.18a.5.5,0,0,0,.53-.53V7.24A.5.5,0,0,0,25.26,6.71Z"/><path class="cls-4" d="M19.53,17.1c-.42-1-2.23-2.33-3.81-3.6-.85-.74-1.7-1.38-2.33-1.91-.11.11-.32.11-.32.21a2,2,0,0,1-.85.21,2.62,2.62,0,0,1-3.07,1.06,1.25,1.25,0,0,1-1-1C8,11.06,8.94,9.57,9.68,8.83H7.56a54,54,0,0,1-1.7,6.36A12,12,0,0,0,7,16.36c2,1.7,4.34,3.39,4.77,3.71a3,3,0,0,0,1.27.42h.32l-1.7-1.7a.52.52,0,0,1,.74-.74l2.12,2.12c.21.21.42.11.64.11s.42-.32.53-.64L13.28,17.2a.52.52,0,1,1,.74-.74l2.65,2.65a1.13,1.13,0,0,0,.85,0c.11-.11.32-.21.42-.42l-3-3a.52.52,0,0,1,.74-.74l3.07,3.07a.7.7,0,0,0,.64-.11A.72.72,0,0,0,19.53,17.1Z"/><rect class="cls-5" width="26.14" height="26.14"/></g></g></svg>