<svg xmlns="http://www.w3.org/2000/svg" xmlns:xlink="http://www.w3.org/1999/xlink" viewBox="0 0 26.14 26.14"><defs><style>.cls-1{fill:url(#linear-gradient);}.cls-2{fill:url(#linear-gradient-2);}.cls-3{fill:url(#linear-gradient-3);}.cls-4{fill:url(#linear-gradient-4);}.cls-5{fill:url(#linear-gradient-5);}.cls-6{fill:none;}</style><linearGradient id="linear-gradient" x1="3.3" y1="13.07" x2="23.1" y2="13.07" gradientUnits="userSpaceOnUse"><stop offset="0" stop-color="#44ad51"/><stop offset="1" stop-color="#3d8647"/></linearGradient><linearGradient id="linear-gradient-2" x1="11.93" y1="11.29" x2="13.96" y2="11.29" xlink:href="#linear-gradient"/><linearGradient id="linear-gradient-3" x1="15.23" y1="9.52" x2="17.26" y2="9.52" xlink:href="#linear-gradient"/><linearGradient id="linear-gradient-4" x1="18.53" y1="10.53" x2="20.56" y2="10.53" xlink:href="#linear-gradient"/><linearGradient id="linear-gradient-5" x1="3.05" y1="14.79" x2="10.49" y2="14.79" xlink:href="#linear-gradient"/></defs><title>3</title><g id="Layer_2" data-name="Layer 2"><g id="ikonas"><g id="Layer_1-2" data-name="Layer 1"><path class="cls-1" d="M23.1,2.92a1,1,0,0,0-1-1H4.31a1,1,0,0,0-.51,1.89V15.49l1-.93V3.93H21.57V15.1H8.49l-.93,1h.9L6.63,23a1,1,0,0,0,2,.52l1.83-6.86H16l1.83,6.86a1,1,0,0,0,1,.75,1,1,0,0,0,.26,0A1,1,0,0,0,19.76,23l-1.83-6.84h4.14a.51.51,0,0,0,.51-.51V3.79A1,1,0,0,0,23.1,2.92Z"/><path class="cls-2" d="M14,13.2V9.39a1,1,0,1,0-2,0V13.2a1,1,0,1,0,2,0Z"/><path class="cls-3" d="M17.26,13.2V5.84a1,1,0,1,0-2,0V13.2a1,1,0,1,0,2,0Z"/><path class="cls-4" d="M20.56,13.2V7.87a1,1,0,1,0-2,0V13.2a1,1,0,1,0,2,0Z"/><path class="cls-5" d="M10.42,11.14a.25.25,0,0,0-.35,0L3.24,17.38a.66.66,0,1,0,.93.93l6.25-6.83A.25.25,0,0,0,10.42,11.14Z"/></g><rect class="cls-6" width="26.14" height="26.14"/></g></g></svg>