<svg xmlns="http://www.w3.org/2000/svg" xmlns:xlink="http://www.w3.org/1999/xlink" viewBox="0 0 26.14 26.14"><defs><style>.cls-1{fill:url(#linear-gradient);}.cls-2{fill:url(#linear-gradient-2);}.cls-3{fill:url(#linear-gradient-3);}.cls-4{fill:url(#linear-gradient-4);}.cls-5{fill:url(#linear-gradient-5);}.cls-6{fill:url(#linear-gradient-6);}.cls-7{fill:none;}</style><linearGradient id="linear-gradient" x1="3.2" y1="16.62" x2="7.41" y2="16.62" gradientUnits="userSpaceOnUse"><stop offset="0" stop-color="#44ad51"/><stop offset="1" stop-color="#3d8647"/></linearGradient><linearGradient id="linear-gradient-2" x1="1.1" y1="21.89" x2="9.52" y2="21.89" xlink:href="#linear-gradient"/><linearGradient id="linear-gradient-3" x1="18.73" y1="16.62" x2="22.94" y2="16.62" xlink:href="#linear-gradient"/><linearGradient id="linear-gradient-4" x1="16.62" y1="21.89" x2="25.04" y2="21.89" xlink:href="#linear-gradient"/><linearGradient id="linear-gradient-5" x1="3.95" y1="8.11" x2="16.58" y2="8.11" xlink:href="#linear-gradient"/><linearGradient id="linear-gradient-6" x1="16" y1="8.82" x2="22.19" y2="8.82" xlink:href="#linear-gradient"/></defs><title>4</title><g id="Layer_2" data-name="Layer 2"><g id="ikonas"><path class="cls-1" d="M5.31,14.52a2.1,2.1,0,1,0,2.1,2.1A2.11,2.11,0,0,0,5.31,14.52Z"/><path class="cls-2" d="M6.71,18.73H3.9A2.81,2.81,0,0,0,1.1,21.53v2.81a.7.7,0,0,0,.7.7h7a.7.7,0,0,0,.7-.7V21.53A2.81,2.81,0,0,0,6.71,18.73Z"/><path class="cls-3" d="M20.83,14.52a2.1,2.1,0,1,0,2.1,2.1A2.11,2.11,0,0,0,20.83,14.52Z"/><path class="cls-4" d="M22.24,18.73H19.43a2.81,2.81,0,0,0-2.81,2.81v2.81a.7.7,0,0,0,.7.7h7a.7.7,0,0,0,.7-.7V21.53A2.81,2.81,0,0,0,22.24,18.73Z"/><path class="cls-5" d="M13.07,1.1H7.46A3.51,3.51,0,0,0,4,4.61V8.82a3.51,3.51,0,0,0,2.81,3.44v2.17a.7.7,0,0,0,1.2.5l2.6-2.6h2.52a3.51,3.51,0,0,0,3.51-3.51V4.61A3.51,3.51,0,0,0,13.07,1.1Zm-.21,4L10.06,7.91a.7.7,0,0,1-1,0l-1.4-1.4a.7.7,0,0,1,1-1l.91.91,2.31-2.31a.7.7,0,1,1,1,1Z"/><path class="cls-6" d="M18.68,2.5H17.49A4.85,4.85,0,0,1,18,4.61V8.82a4.89,4.89,0,0,1-2,3.92l2.19,2.19a.7.7,0,0,0,1.2-.5V12.25a3.51,3.51,0,0,0,2.81-3.44V6A3.51,3.51,0,0,0,18.68,2.5Z"/><rect class="cls-7" width="26.14" height="26.14"/></g></g></svg>