<svg xmlns="http://www.w3.org/2000/svg" xmlns:xlink="http://www.w3.org/1999/xlink" viewBox="0 0 26.14 26.14"><defs><style>.cls-1{fill:url(#linear-gradient);}.cls-2{fill:url(#linear-gradient-2);}.cls-3{fill:url(#linear-gradient-3);}.cls-4{fill:url(#linear-gradient-4);}.cls-5{fill:none;}</style><linearGradient id="linear-gradient" x1="10.57" y1="11.2" x2="13.39" y2="11.2" gradientUnits="userSpaceOnUse"><stop offset="0" stop-color="#44ad51"/><stop offset="1" stop-color="#3d8647"/></linearGradient><linearGradient id="linear-gradient-2" x1="7.13" y1="11.2" x2="16.81" y2="11.2" xlink:href="#linear-gradient"/><linearGradient id="linear-gradient-3" x1="17.53" y1="3.88" x2="21.92" y2="3.88" xlink:href="#linear-gradient"/><linearGradient id="linear-gradient-4" x1="3.61" y1="13.07" x2="22.54" y2="13.07" xlink:href="#linear-gradient"/></defs><title>5</title><g id="Layer_2" data-name="Layer 2"><g id="ikonas"><path class="cls-1" d="M13.39,11.2A1.41,1.41,0,1,1,12,9.79,1.41,1.41,0,0,1,13.39,11.2Z"/><path class="cls-2" d="M8.28,12a3.69,3.69,0,0,0,.53,1.26.44.44,0,0,1,0,.53l-.48.57.52.52.57-.47a.44.44,0,0,1,.52,0,3.82,3.82,0,0,0,1.26.53.45.45,0,0,1,.35.39l.07.75h.74l.07-.75a.45.45,0,0,1,.35-.4A3.69,3.69,0,0,0,14,14.36a.44.44,0,0,1,.53,0l.57.48.52-.52-.47-.57a.44.44,0,0,1,0-.52A3.82,3.82,0,0,0,15.67,12a.45.45,0,0,1,.39-.35l.74-.07v-.75l-.76-.07a.45.45,0,0,1-.4-.35,3.69,3.69,0,0,0-.53-1.26.44.44,0,0,1,0-.53l.48-.58-.51-.52L14.55,8A.44.44,0,0,1,14,8a3.82,3.82,0,0,0-1.26-.53.44.44,0,0,1-.35-.39l-.07-.75H11.6l-.07.75a.45.45,0,0,1-.35.4A3.69,3.69,0,0,0,9.93,8a.44.44,0,0,1-.53,0l-.57-.47-.52.52.47.57a.44.44,0,0,1,0,.52,3.82,3.82,0,0,0-.54,1.26.45.45,0,0,1-.39.35l-.76.07v.74l.76.07A.45.45,0,0,1,8.28,12ZM12,8.91A2.29,2.29,0,1,1,9.69,11.2,2.29,2.29,0,0,1,12,8.91Z"/><path class="cls-3" d="M18.19,6.14h3.73L17.53,1.62V5.48a.65.65,0,0,0,.65.65Z"/><path class="cls-4" d="M16.65,5.48V1H5.38A1.78,1.78,0,0,0,3.61,2.73V23.41a1.78,1.78,0,0,0,1.77,1.77H20.76a1.78,1.78,0,0,0,1.77-1.77V7H18.19a1.54,1.54,0,0,1-1.54-1.53ZM6.25,10.43A.45.45,0,0,1,6.66,10l.85-.08a4.69,4.69,0,0,1,.4-1l-.53-.64a.44.44,0,0,1,0-.59L8.49,6.63a.44.44,0,0,1,.59,0l.64.53a4.61,4.61,0,0,1,1-.41l.08-.84a.45.45,0,0,1,.44-.41h1.54a.45.45,0,0,1,.44.41l.08.84a4.69,4.69,0,0,1,1,.4l.64-.53a.44.44,0,0,1,.59,0l1.08,1.09a.44.44,0,0,1,0,.59L16,8.95a4.62,4.62,0,0,1,.41,1l.84.08a.45.45,0,0,1,.41.44V12a.45.45,0,0,1-.41.44l-.83.08a4.67,4.67,0,0,1-.4,1l.53.64a.44.44,0,0,1,0,.59l-1.09,1.09a.44.44,0,0,1-.59,0l-.64-.53a4.61,4.61,0,0,1-1,.41l-.08.84a.45.45,0,0,1-.44.41H11.2a.45.45,0,0,1-.44-.41l-.08-.84a4.69,4.69,0,0,1-1-.4l-.64.53a.44.44,0,0,1-.59,0L7.4,14.68a.44.44,0,0,1,0-.59l.53-.64a4.62,4.62,0,0,1-.41-1l-.84-.08A.45.45,0,0,1,6.25,12Zm.32,7.71h7.58a.44.44,0,0,1,0,.88H6.57a.44.44,0,0,1,0-.88Zm13.11,3.41a.44.44,0,0,1-.44.44H6.57a.44.44,0,1,1,0-.88H19.23A.44.44,0,0,1,19.67,21.54Z"/><rect class="cls-5" width="26.14" height="26.14"/></g></g></svg>