<svg xmlns="http://www.w3.org/2000/svg" xmlns:xlink="http://www.w3.org/1999/xlink" viewBox="0 0 26.14 26.14"><defs><style>.cls-1{fill:url(#linear-gradient);}.cls-2{fill:url(#linear-gradient-2);}.cls-3{fill:url(#linear-gradient-3);}.cls-4{fill:url(#linear-gradient-4);}.cls-5{fill:url(#linear-gradient-5);}.cls-6{fill:url(#linear-gradient-6);}.cls-7{fill:url(#linear-gradient-7);}.cls-8{fill:url(#linear-gradient-8);}.cls-9{fill:none;}</style><linearGradient id="linear-gradient" x1="10.84" y1="6.53" x2="15.11" y2="6.53" gradientUnits="userSpaceOnUse"><stop offset="0" stop-color="#44ad51"/><stop offset="1" stop-color="#3d8647"/></linearGradient><linearGradient id="linear-gradient-2" x1="7.35" y1="13.07" x2="18.8" y2="13.07" xlink:href="#linear-gradient"/><linearGradient id="linear-gradient-3" x1="0.66" y1="16.44" x2="9.7" y2="16.44" xlink:href="#linear-gradient"/><linearGradient id="linear-gradient-4" x1="5.16" y1="10.06" x2="8.4" y2="10.06" xlink:href="#linear-gradient"/><linearGradient id="linear-gradient-5" x1="2" y1="9.87" x2="4.88" y2="9.87" xlink:href="#linear-gradient"/><linearGradient id="linear-gradient-6" x1="17.74" y1="10.06" x2="20.98" y2="10.06" xlink:href="#linear-gradient"/><linearGradient id="linear-gradient-7" x1="16.44" y1="16.44" x2="25.48" y2="16.44" xlink:href="#linear-gradient"/><linearGradient id="linear-gradient-8" x1="21.26" y1="9.87" x2="24.14" y2="9.87" xlink:href="#linear-gradient"/></defs><title>6</title><g id="Layer_2" data-name="Layer 2"><g id="ikonas"><path class="cls-1" d="M13,8.67a2.13,2.13,0,1,0-2.13-2.13A2.13,2.13,0,0,0,13,8.67Z"/><path class="cls-2" d="M16.44,9.92c1.53-1.4,1.68-1.7,1.77-1.87a10.6,10.6,0,0,0,.58-2.73.91.91,0,0,0-.81-1h-.09a.9.9,0,0,0-.9.82,10,10,0,0,1-.39,2.08,21.31,21.31,0,0,1-2,1.89H11.5a21.33,21.33,0,0,1-2-1.89,10,10,0,0,1-.39-2.08.9.9,0,0,0-.9-.82H8.16a.91.91,0,0,0-.81,1,10.6,10.6,0,0,0,.58,2.73c.08.16.24.47,1.77,1.87l1.09,1v10a.94.94,0,1,0,1.89,0V15.64h.6v5.23a.94.94,0,1,0,1.89,0v-9.8C15.37,10.88,15.9,10.43,16.44,9.92Z"/><path class="cls-3" d="M8.4,12.31a.65.65,0,0,0-.58-.39H5.54a.64.64,0,0,0-.49.23l-.12-.28a.57.57,0,0,0-.53-.35H2.34a.52.52,0,0,0-.53.35L.71,14.42a.57.57,0,1,0,1.05.45L2,14.34v4.94a.63.63,0,0,0,1.26,0V16h.27v3.24a.63.63,0,0,0,1.26,0V15.86a.64.64,0,0,0,.11-.17l.26-.6h0v5.54a.71.71,0,0,0,1.42,0V17h.3v3.68a.71.71,0,0,0,1.42,0V15.28l.18.41a.64.64,0,1,0,1.18-.51Z"/><path class="cls-4" d="M6.78,11.69a1.62,1.62,0,1,0-1.62-1.62A1.62,1.62,0,0,0,6.78,11.69Z"/><path class="cls-5" d="M3.44,11.32A1.44,1.44,0,1,0,2,9.87,1.44,1.44,0,0,0,3.44,11.32Z"/><path class="cls-6" d="M17.74,10.06a1.62,1.62,0,1,0,1.62-1.62A1.62,1.62,0,0,0,17.74,10.06Z"/><path class="cls-7" d="M25.43,14.42l-1.1-2.55a.57.57,0,0,0-.53-.35H21.74a.57.57,0,0,0-.53.35l-.12.28a.64.64,0,0,0-.49-.23H18.32a.61.61,0,0,0-.58.39L16.5,15.18a.64.64,0,1,0,1.18.51l.18-.41v5.36a.71.71,0,0,0,1.42,0V17h.3v3.68a.71.71,0,0,0,1.42,0V15.1h0l.26.6a.64.64,0,0,0,.11.17v3.41a.63.63,0,0,0,1.26,0V16h.27v3.24a.63.63,0,0,0,1.26,0V14.34l.23.54a.57.57,0,0,0,1.05-.45Z"/><path class="cls-8" d="M22.7,11.32a1.44,1.44,0,1,0-1.44-1.44A1.44,1.44,0,0,0,22.7,11.32Z"/><rect class="cls-9" width="26.14" height="26.14"/></g></g></svg>