<svg xmlns="http://www.w3.org/2000/svg" xmlns:xlink="http://www.w3.org/1999/xlink" viewBox="0 0 26.14 26.14"><defs><style>.cls-1{fill:url(#linear-gradient);}.cls-2{fill:url(#linear-gradient-2);}.cls-3{fill:url(#linear-gradient-3);}.cls-4{fill:none;}</style><linearGradient id="linear-gradient" x1="16.09" y1="7.71" x2="21.03" y2="7.71" gradientUnits="userSpaceOnUse"><stop offset="0" stop-color="#44ad51"/><stop offset="1" stop-color="#3d8647"/></linearGradient><linearGradient id="linear-gradient-2" x1="1.99" y1="13.07" x2="24.15" y2="13.07" xlink:href="#linear-gradient"/><linearGradient id="linear-gradient-3" x1="4.97" y1="7.71" x2="9.91" y2="7.71" xlink:href="#linear-gradient"/></defs><title>7</title><g id="Layer_2" data-name="Layer 2"><g id="ikonas"><path class="cls-1" d="M18.56,10.18a2.47,2.47,0,1,0-2.47-2.47A2.47,2.47,0,0,0,18.56,10.18Z"/><path class="cls-2" d="M23.94,14.65l-.85-1.16c-.19-.26-.52-.68-.72-.94L21.13,11a.85.85,0,0,0-.73-.39h-3L15.51,9.29a7.66,7.66,0,0,1-.76-.61l-.22-.21h.4a.2.2,0,0,0,.2-.27l-.26-.94a.32.32,0,0,0-.3-.23h-.67l-.17-1,.89-.59a1.41,1.41,0,0,0,.49-.66,1.42,1.42,0,0,0,1.29-1.41c0-1-.28-1.42-1-1.43l.16-.64a.23.23,0,0,0-.23-.3h-4.6a.23.23,0,0,0-.23.3l.16.64c-.68,0-1,.43-1,1.43a1.42,1.42,0,0,0,1.29,1.41,1.41,1.41,0,0,0,.49.66l.89.59-.17,1H11.7a.32.32,0,0,0-.3.23l-.26.94a.2.2,0,0,0,.2.27h.3l-.22.21a7.67,7.67,0,0,1-.75.61L8.74,10.6H5.83A1,1,0,0,0,5,11L3.76,12.56c-.2.25-.52.67-.72.94L2.2,14.65A1,1,0,0,0,3,16.32a1,1,0,0,0,.84-.43l.76-1-.17,1.86L3,23.68A1.1,1.1,0,0,0,3.86,25l.23,0a1.11,1.11,0,0,0,1.08-.88l1.37-6.52H6.9l.2,2.2a9.83,9.83,0,0,1,0,1L7,23.87A1.1,1.1,0,0,0,8.06,25h0A1.1,1.1,0,0,0,9.21,24l.12-3.06a11.94,11.94,0,0,0,0-1.27L9,16.33v0l.32-3.56L11.84,11a9.75,9.75,0,0,0,1-.81l.24-.22.24.22a9.74,9.74,0,0,0,1,.81l2.34,1.59L17,16.3v0l-.29,3.29a12,12,0,0,0,0,1.27l.12,3.19a1.1,1.1,0,0,0,1.1,1.06h0A1.1,1.1,0,0,0,19,24l-.12-3.19a9.94,9.94,0,0,1,0-1l.2-2.2h.36L20,20.1c.07.32.18.83.26,1.14L21,24.17a1.1,1.1,0,1,0,2.14-.52l-.71-2.93c-.07-.3-.18-.78-.24-1.08l-.62-2.93-.19-2.08.07.09.85,1.16a1,1,0,0,0,.84.43,1,1,0,0,0,.84-1.66ZM15.27,2.52l0,0h.13c.24,0,.43,0,.43.87a.86.86,0,0,1-.58.81ZM10.9,4.18a.86.86,0,0,1-.58-.81c0-.87.19-.87.43-.87h.14l0,0V4.18Zm1.51.09a.16.16,0,0,1,0-.15l.18-.54h0l-.46-.33A.15.15,0,0,1,12.2,3h.57l.17-.54a.15.15,0,0,1,.29,0l.18.54H14a.15.15,0,0,1,.09.27l-.46.33h0l.17.54a.16.16,0,0,1,0,.15.14.14,0,0,1-.11.06.18.18,0,0,1-.11,0L13.09,4l-.46.33A.15.15,0,0,1,12.41,4.27Z"/><path class="cls-3" d="M7.44,10.18A2.47,2.47,0,1,0,5,7.71,2.47,2.47,0,0,0,7.44,10.18Z"/><rect class="cls-4" width="26.14" height="26.14"/></g></g></svg>