<svg xmlns="http://www.w3.org/2000/svg" xmlns:xlink="http://www.w3.org/1999/xlink" viewBox="0 0 26.14 26.14"><defs><style>.cls-1{fill:url(#linear-gradient);}.cls-2{fill:url(#linear-gradient-2);}.cls-3{fill:none;}</style><linearGradient id="linear-gradient" x1="1.36" y1="13.07" x2="24.78" y2="13.07" gradientUnits="userSpaceOnUse"><stop offset="0" stop-color="#44ad51"/><stop offset="1" stop-color="#3d8647"/></linearGradient><linearGradient id="linear-gradient-2" x1="4.96" y1="15.97" x2="20.79" y2="15.97" xlink:href="#linear-gradient"/></defs><title>8</title><g id="Layer_2" data-name="Layer 2"><g id="ikonas"><path class="cls-1" d="M24.78,16.34a.88.88,0,0,0-.5-.79V10.13a.17.17,0,0,0,0-.31L13.1,5.87a.66.66,0,0,0-.44,0L1.47,9.82a.17.17,0,0,0,0,.31l11.17,4.35a.67.67,0,0,0,.48,0l10.4-4v5.12a.88.88,0,0,0,0,1.6A7.29,7.29,0,0,0,23,19.42a.88.88,0,0,0,1.77,0,7.31,7.31,0,0,0-.54-2.27A.88.88,0,0,0,24.78,16.34Z"/><path class="cls-2" d="M5,12.32c0,1.25,0,2.72,0,3,0,2.33,3.5,4.22,7.91,4.34,4.41-.12,7.91-2,7.91-4.34,0-.23,0-1.7,0-3l-7.67,3a.67.67,0,0,1-.48,0Z"/><rect class="cls-3" width="26.14" height="26.14"/></g></g></svg>