<svg xmlns="http://www.w3.org/2000/svg" xmlns:xlink="http://www.w3.org/1999/xlink" viewBox="0 0 26.14 26.14"><defs><style>.cls-1{fill:url(#linear-gradient);}.cls-2{fill:none;}</style><linearGradient id="linear-gradient" x1="1.29" y1="13.07" x2="24.85" y2="13.07" gradientUnits="userSpaceOnUse"><stop offset="0" stop-color="#44ad51"/><stop offset="1" stop-color="#3d8647"/></linearGradient></defs><title>9</title><g id="Layer_2" data-name="Layer 2"><g id="ikonas"><path class="cls-1" d="M23.92,10.13a.66.66,0,0,1,0,.2l-1.45,5.81a.66.66,0,0,1-.64.5l-8.72,0H4.37a.66.66,0,0,1-.64-.5L2.28,10.35a.66.66,0,0,1,0-.2,1.39,1.39,0,1,1,1.3-.25l1.82,1.83a2.47,2.47,0,0,0,3.72-.25l3-4a1.39,1.39,0,1,1,2,0h0l3,4a2.48,2.48,0,0,0,2,1,2.45,2.45,0,0,0,1.74-.72L22.59,9.9a1.39,1.39,0,1,1,1.33.23Zm-1.61,8.62a.66.66,0,0,0-.66-.66H4.56a.66.66,0,0,0-.66.66v1.59a.66.66,0,0,0,.66.66H21.65a.66.66,0,0,0,.66-.66Z"/><rect class="cls-2" width="26.14" height="26.14"/></g></g></svg>