<svg id="Capa_1" data-name="Capa 1" xmlns="http://www.w3.org/2000/svg" xmlns:xlink="http://www.w3.org/1999/xlink" viewBox="0 0 486 486"><defs><style>.cls-1{fill:url(#linear-gradient);}</style><linearGradient id="linear-gradient" x1="458.28" y1="175.92" x2="35.16" y2="313.4" gradientUnits="userSpaceOnUse"><stop offset="0" stop-color="#43a750"/><stop offset="1" stop-color="#3f8e49"/></linearGradient></defs><path class="cls-1" d="M298.4,424.7v14.2a22.52,22.52,0,0,1-19.1,22.3l-3.5,12.9A16.06,16.06,0,0,1,260.3,486H225.6a16.06,16.06,0,0,1-15.5-11.9l-3.4-12.9a22.62,22.62,0,0,1-19.2-22.4V424.6a13.66,13.66,0,0,1,13.7-13.7h83.5A13.81,13.81,0,0,1,298.4,424.7Zm64.3-191.4a119.13,119.13,0,0,1-33.6,83.1A109.79,109.79,0,0,0,299.7,376a19.8,19.8,0,0,1-19.6,16.7H205.8a19.61,19.61,0,0,1-19.5-16.6,111,111,0,0,0-29.6-59.8,119.72,119.72,0,1,1,206-83ZM256.5,160.8A13.51,13.51,0,0,0,243,147.3a86.49,86.49,0,0,0-86.4,86.4,13.5,13.5,0,0,0,27,0A59.47,59.47,0,0,1,243,174.3,13.44,13.44,0,0,0,256.5,160.8ZM243,74.3a13.51,13.51,0,0,0,13.5-13.5V13.5a13.5,13.5,0,0,0-27,0V60.8A13.51,13.51,0,0,0,243,74.3ZM84.1,233.2a13.51,13.51,0,0,0-13.5-13.5H23.3a13.5,13.5,0,0,0,0,27H70.6A13.44,13.44,0,0,0,84.1,233.2Zm378.6-13.5H415.4a13.5,13.5,0,0,0,0,27h47.3a13.5,13.5,0,0,0,0-27ZM111.6,345.6,78.1,379.1a13.47,13.47,0,0,0,19,19.1l33.5-33.5a13.47,13.47,0,1,0-19-19.1ZM364.9,124.8a13.48,13.48,0,0,0,9.5-3.9l33.5-33.5a13.51,13.51,0,1,0-19.1-19.1l-33.5,33.5a13.46,13.46,0,0,0,0,19.1A13.71,13.71,0,0,0,364.9,124.8Zm-253.3-4a13.47,13.47,0,0,0,19-19.1L97.1,68.2A13.51,13.51,0,0,0,78,87.3ZM374.4,345.6a13.51,13.51,0,0,0-19.1,19.1l33.5,33.5a13.47,13.47,0,0,0,19-19.1Z"/></svg>