<svg id="Layer_1" data-name="Layer 1" xmlns="http://www.w3.org/2000/svg" xmlns:xlink="http://www.w3.org/1999/xlink" viewBox="0 0 39.04 39.04"><defs><style>.cls-1{fill:url(#linear-gradient);}.cls-2{fill:url(#linear-gradient-2);}.cls-3{fill:url(#linear-gradient-3);}.cls-4{fill:url(#linear-gradient-4);}.cls-5{fill:none;}</style><linearGradient id="linear-gradient" x1="8.56" y1="13.51" x2="30.48" y2="13.51" gradientTransform="matrix(1, 0, 0, -1, 0, 39.89)" gradientUnits="userSpaceOnUse"><stop offset="0" stop-color="#44ad51"/><stop offset="1" stop-color="#3d8647"/></linearGradient><linearGradient id="linear-gradient-2" x1="8.56" y1="17.48" x2="30.48" y2="17.48" xlink:href="#linear-gradient"/><linearGradient id="linear-gradient-3" x1="8.55" y1="21.46" x2="30.48" y2="21.46" xlink:href="#linear-gradient"/><linearGradient id="linear-gradient-4" x1="8.55" y1="26.32" x2="30.47" y2="26.32" xlink:href="#linear-gradient"/></defs><g id="skolenu_smu" data-name="skolenu smu"><path class="cls-1" d="M8.56,26.28a.81.81,0,0,0,.6.75l8.26,2.19a2.47,2.47,0,0,0,.6.08,2.43,2.43,0,0,0,.76-.13l11.15-3.84a.82.82,0,0,0,.51-1,.81.81,0,0,0-.6-.53l-1.42-.32L19.26,26.6a3.83,3.83,0,0,1-2.24.08L10.54,25l-1.44.52A.81.81,0,0,0,8.56,26.28Z"/><path class="cls-2" d="M8.56,22.31a.81.81,0,0,0,.6.75l8.26,2.19a2.47,2.47,0,0,0,.6.08,2.17,2.17,0,0,0,.76-.13l11.15-3.83a.83.83,0,0,0,.55-.82.82.82,0,0,0-.64-.75l-1.42-.32-9.16,3.15a3.83,3.83,0,0,1-2.24.08L10.54,21l-1.44.5A.81.81,0,0,0,8.56,22.31Z"/><path class="cls-3" d="M19.26,18.66a3.76,3.76,0,0,1-1.24.21,3.39,3.39,0,0,1-1-.13L10.54,17l-1.44.52a.81.81,0,0,0,.06,1.55l8.26,2.19a2.47,2.47,0,0,0,.6.08,2.17,2.17,0,0,0,.76-.13L29.93,17.4a.83.83,0,0,0,.55-.82.82.82,0,0,0-.64-.75l-1.42-.32Z"/><path class="cls-4" d="M9.16,15.12l8.26,2.19a2.47,2.47,0,0,0,.6.08,2.17,2.17,0,0,0,.76-.13l11.15-3.83a.82.82,0,0,0-.09-1.57L20.64,9.8a2.22,2.22,0,0,0-.51-.06,2.45,2.45,0,0,0-.8.14L9.1,13.57a.81.81,0,0,0,.06,1.55Z"/><rect class="cls-5" width="39.04" height="39.04"/></g></svg>