<svg id="Capa_1" data-name="Capa 1" xmlns="http://www.w3.org/2000/svg" xmlns:xlink="http://www.w3.org/1999/xlink" viewBox="0 0 297 297"><defs><style>.cls-1{fill:url(#linear-gradient);}.cls-2{fill:url(#linear-gradient-2);}.cls-3{fill:url(#linear-gradient-3);}</style><linearGradient id="linear-gradient" x1="193.28" y1="222.2" x2="175.66" y2="227.93" gradientUnits="userSpaceOnUse"><stop offset="0" stop-color="#43a750"/><stop offset="1" stop-color="#3f8e49"/></linearGradient><linearGradient id="linear-gradient-2" x1="191.58" y1="11.37" x2="104.31" y2="39.72" xlink:href="#linear-gradient"/><linearGradient id="linear-gradient-3" x1="281.41" y1="118.94" x2="15.6" y2="205.31" xlink:href="#linear-gradient"/></defs><path class="cls-1" d="M184.47,215.8a9.27,9.27,0,1,0,9.26,9.27A9.28,9.28,0,0,0,184.47,215.8Z"/><path class="cls-2" d="M193.73,18H166.48a8.72,8.72,0,0,1-8.72-8.72,9.26,9.26,0,1,0-18.52,0A8.72,8.72,0,0,1,130.52,18H103.27V36.51h90.46V18Z"/><path class="cls-3" d="M238.87,27.25h-27.7v18A8.71,8.71,0,0,1,202.45,54H94.55a8.71,8.71,0,0,1-8.72-8.72v-18H58.13A17.53,17.53,0,0,0,40.6,44.78V279.47A17.53,17.53,0,0,0,58.13,297H238.87a17.53,17.53,0,0,0,17.53-17.53V44.78A17.53,17.53,0,0,0,238.87,27.25ZM94.55,125.88A8.72,8.72,0,0,1,88.38,111L100.2,99.18,88.38,87.36A8.72,8.72,0,1,1,100.72,75l11.81,11.82L124.35,75a8.72,8.72,0,0,1,12.33,12.33L124.87,99.18,136.68,111a8.72,8.72,0,1,1-12.33,12.33l-11.82-11.82-11.81,11.82A8.72,8.72,0,0,1,94.55,125.88Zm53.71,81a8.72,8.72,0,0,1-12.2,1.8c-27.19-20.21-32.37-62.15-32.58-63.92a8.72,8.72,0,0,1,17.32-2c.06.52,4.61,36.3,25.66,51.95A8.72,8.72,0,0,1,148.26,206.92Zm36.21,44.85a26.71,26.71,0,1,1,26.7-26.7A26.74,26.74,0,0,1,184.47,251.77Z"/></svg>