<svg id="Layer_1" data-name="Layer 1" xmlns="http://www.w3.org/2000/svg" xmlns:xlink="http://www.w3.org/1999/xlink" viewBox="0 0 39.04 39.04"><defs><style>.cls-1{fill:none;}.cls-2{fill:url(#linear-gradient);}.cls-3{fill:url(#linear-gradient-2);}.cls-4{fill:url(#linear-gradient-3);}.cls-5{fill:url(#linear-gradient-4);}.cls-6{fill:url(#linear-gradient-5);}.cls-7{fill:url(#linear-gradient-6);}</style><linearGradient id="linear-gradient" x1="5.42" y1="15.55" x2="15.52" y2="15.55" gradientTransform="matrix(1, 0, 0, -1, 0, 39.89)" gradientUnits="userSpaceOnUse"><stop offset="0" stop-color="#44ad51"/><stop offset="1" stop-color="#3d8647"/></linearGradient><linearGradient id="linear-gradient-2" x1="7.42" y1="26.39" x2="15.99" y2="26.39" xlink:href="#linear-gradient"/><linearGradient id="linear-gradient-3" x1="14.76" y1="14.88" x2="24.17" y2="14.88" xlink:href="#linear-gradient"/><linearGradient id="linear-gradient-4" x1="16.55" y1="24.53" x2="24.28" y2="24.53" xlink:href="#linear-gradient"/><linearGradient id="linear-gradient-5" x1="23.97" y1="14.16" x2="33.61" y2="14.16" xlink:href="#linear-gradient"/><linearGradient id="linear-gradient-6" x1="25.5" y1="22.36" x2="32.08" y2="22.36" xlink:href="#linear-gradient"/></defs><g id="Layer_2" data-name="Layer 2"><g id="skolenu_smu" data-name="skolenu smu"><rect class="cls-1" width="39.04" height="39.04"/><path class="cls-2" d="M15.52,20.14a6.28,6.28,0,0,0-10.1,5V29a.83.83,0,0,0,.83.83h6.63v-4A7.51,7.51,0,0,1,15.52,20.14Z"/><path class="cls-3" d="M11.71,17.79A4.29,4.29,0,1,0,7.42,13.5a4.29,4.29,0,0,0,4.29,4.29Z"/><path class="cls-4" d="M20.43,20.19a5.67,5.67,0,0,0-5.67,5.67h0V29a.82.82,0,0,0,.81.83h6.52V26.45a6.66,6.66,0,0,1,2.08-4.84A5.65,5.65,0,0,0,20.43,20.19Z"/><path class="cls-5" d="M18.33,18.61a3.8,3.8,0,0,0,4.19,0,3.87,3.87,0,1,0-4.19,0Z"/><path class="cls-6" d="M28.79,21.63A4.82,4.82,0,0,0,24,26.45V29a.84.84,0,0,0,.82.83h8a.82.82,0,0,0,.82-.82h0V26.45a4.82,4.82,0,0,0-4.82-4.82Z"/><path class="cls-7" d="M26.73,20.08A3.29,3.29,0,0,0,30.89,15a3.34,3.34,0,0,0-2.1-.74,3.28,3.28,0,0,0-2.06,5.84Z"/></g></g></svg>