<?xml version="1.0" encoding="UTF-8"?>
<svg width="36px" height="36px" viewBox="0 0 36 36" version="1.1" xmlns="http://www.w3.org/2000/svg" xmlns:xlink="http://www.w3.org/1999/xlink">
    <title>email@2x</title>
    <g id="email@2x" stroke="none" stroke-width="1" fill="none" fill-rule="evenodd">
        <g id="email" transform="translate(2.000000, 7.000000)" fill="#393939" fill-rule="nonzero">
            <path d="M31.8614719,2.31184848 C31.8614719,2.27518788 31.8865455,2.23950303 31.8849623,2.20326061 L22.1546667,11.6374424 L31.8732468,20.7702545 C31.8789264,20.7050182 31.8614719,20.6392242 31.8614719,20.5725939 L31.8614719,2.31184848 L31.8614719,2.31184848 Z" id="Path"></path>
            <path d="M20.669368,13.0892303 L16.6972121,16.9348303 C16.4962078,17.1294242 16.2366061,17.227 15.9768658,17.227 C15.7225281,17.227 15.4681905,17.1336061 15.2685714,16.9464 L11.3072208,13.2319697 L1.52519481,22.7196788 C1.76304762,22.8056848 2.01835498,22.8724545 2.28571429,22.8724545 L29.6681558,22.8724545 C30.0651775,22.8724545 30.4375411,22.7507636 30.7612814,22.5692727 L20.669368,13.0892303 Z" id="Path"></path>
            <path d="M15.9655065,14.7418848 L30.8151688,0.347927273 C30.478961,0.146781818 30.087619,0.0118484848 29.6681558,0.0118484848 L2.28571429,0.0118484848 C1.73949784,0.0118484848 1.23899567,0.225260606 0.849177489,0.550745455 L15.9655065,14.7418848 Z" id="Path"></path>
            <path d="M0,2.66242424 L0,20.5723152 C0,20.7779212 0.046961039,20.9761394 0.0979393939,21.1655758 L9.75861472,11.8044364 L0,2.66242424 Z" id="Path"></path>
        </g>
    </g>
</svg>