<?xml version="1.0" encoding="UTF-8"?>
<svg width="36px" height="36px" viewBox="0 0 36 36" version="1.1" xmlns="http://www.w3.org/2000/svg" xmlns:xlink="http://www.w3.org/1999/xlink">
    <title>instagram@2x</title>
    <g id="instagram@2x" stroke="none" stroke-width="1" fill="none" fill-rule="evenodd">
        <g id="Group-8" transform="translate(2.000000, 1.000000)" fill="#393939">
            <g id="Group-3" transform="translate(0.000000, 0.959900)">
                <path d="M29.1242,23.1805 C29.1242,26.4805 26.4402,29.1645 23.1402,29.1645 L8.8192,29.1645 C5.5202,29.1645 2.8352,26.4805 2.8352,23.1805 L2.8352,8.8605 C2.8352,5.5605 5.5202,2.8755 8.8192,2.8755 L23.1402,2.8755 C26.4402,2.8755 29.1242,5.5605 29.1242,8.8605 L29.1242,23.1805 Z M23.1402,0.0395 L8.8192,0.0395 C3.9562,0.0395 0.0002,3.9965 0.0002,8.8605 L0.0002,23.1805 C0.0002,28.0435 3.9562,31.9995 8.8192,31.9995 L23.1402,31.9995 C28.0032,31.9995 31.9602,28.0425 31.9602,23.1805 L31.9602,8.8605 C31.9602,3.9965 28.0032,0.0395 23.1402,0.0395 L23.1402,0.0395 Z" id="Fill-1"></path>
            </g>
            <path d="M15.9802,22.3786 C13.0032,22.3786 10.5802,19.9576 10.5802,16.9806 C10.5802,14.0036 13.0022,11.5796 15.9802,11.5796 C18.9582,11.5796 21.3802,14.0036 21.3802,16.9806 C21.3802,19.9576 18.9572,22.3786 15.9802,22.3786 M15.9802,8.7456 C11.4382,8.7456 7.7442,12.4396 7.7442,16.9806 C7.7442,21.5216 11.4382,25.2156 15.9802,25.2156 C20.5212,25.2156 24.2152,21.5216 24.2152,16.9806 C24.2152,12.4396 20.5212,8.7456 15.9802,8.7456" id="Fill-4"></path>
            <path d="M24.5608,6.3405 C24.0148,6.3405 23.4778,6.5615 23.0918,6.9485 C22.7038,7.3345 22.4808,7.8715 22.4808,8.4205 C22.4808,8.9665 22.7048,9.5035 23.0918,9.8915 C23.4778,10.2775 24.0148,10.4995 24.5608,10.4995 C25.1088,10.4995 25.6438,10.2775 26.0308,9.8915 C26.4188,9.5035 26.6408,8.9655 26.6408,8.4205 C26.6408,7.8715 26.4188,7.3345 26.0308,6.9485 C25.6448,6.5615 25.1088,6.3405 24.5608,6.3405" id="Fill-6"></path>
        </g>
    </g>
</svg>