<?xml version="1.0" encoding="UTF-8"?>
<svg width="36px" height="36px" viewBox="0 0 36 36" version="1.1" xmlns="http://www.w3.org/2000/svg" xmlns:xlink="http://www.w3.org/1999/xlink">
    <title>share@2x</title>
    <g id="share@2x" stroke="none" stroke-width="1" fill="none" fill-rule="evenodd">
        <path d="M27.5454474,23.8180902 C25.9625856,23.8180902 24.5360093,24.4959664 23.5387866,25.57603 L13.6728591,19.9514791 C13.8260764,19.4488727 13.9091729,18.9158402 13.9091729,18.3636316 C13.9091729,17.8111673 13.8260125,17.277943 13.6726034,16.775017 L23.5383392,11.1506578 C24.535498,12.231105 25.9623299,12.9091729 27.5454474,12.9091729 C30.5537348,12.9091729 32.999906,10.4627461 32.999906,7.45445863 C32.999906,4.44642684 30.5537348,2 27.5454474,2 C24.5371599,2 22.0909887,4.44642684 22.0909887,7.45445863 C22.0909887,7.89985623 22.1458325,8.33246974 22.2469546,8.74718553 L12.246922,14.4482492 C11.2645928,13.4965378 9.92737724,12.9091729 8.45445863,12.9091729 C5.44642684,12.9091729 3,15.3553441 3,18.3636316 C3,21.3718551 5.44642684,23.8180902 8.45445863,23.8180902 C9.927569,23.8180902 11.2650402,23.2305336 12.2473695,22.2785665 L22.2471464,27.9793745 C22.1458964,28.3942821 22.0909887,28.8270873 22.0909887,29.2728045 C22.0909887,32.2808363 24.5371599,34.7272632 27.5454474,34.7272632 C30.5537348,34.7272632 32.999906,32.2808363 32.999906,29.2728045 C32.999906,26.2645171 30.5537348,23.8180902 27.5454474,23.8180902" id="Fill-1" fill="#393939"></path>
    </g>
</svg>