<?xml version="1.0" encoding="UTF-8"?>
<svg width="36px" height="36px" viewBox="0 0 36 36" version="1.1" xmlns="http://www.w3.org/2000/svg" xmlns:xlink="http://www.w3.org/1999/xlink">
    <title>twitter@2x</title>
    <defs>
        <polygon id="path-1" points="0 8.46153846e-05 32.2570769 8.46153846e-05 32.2570769 26.2020846 0 26.2020846"></polygon>
    </defs>
    <g id="twitter@2x" stroke="none" stroke-width="1" fill="none" fill-rule="evenodd">
        <g id="Group-3" transform="translate(2.000000, 5.000000)">
            <mask id="mask-2" fill="white">
                <use xlink:href="#path-1"></use>
            </mask>
            <g id="Clip-2"></g>
            <path d="M32.2574154,3.09929231 C31.0753385,3.62390769 29.7951077,3.98690769 28.4573385,4.14513846 C29.8255692,3.32690769 30.8688769,2.02806154 31.3706462,0.481292308 C30.0904154,1.24029231 28.6739538,1.79113846 27.1568,2.08644615 C25.9578,0.806215385 24.2341846,-0.000169230769 22.3337231,-0.000169230769 C18.6825692,-0.000169230769 15.7193385,2.96390769 15.7193385,6.61421538 C15.7193385,7.13629231 15.7794154,7.63721538 15.8877231,8.12206154 C10.3843385,7.84452308 5.51387692,5.21636923 2.24518462,1.20983077 C1.67318462,2.1846 1.34826154,3.32690769 1.34826154,4.53775385 C1.34826154,6.83167692 2.51933846,8.85990769 4.29118462,10.0394462 C3.20810769,10.0115231 2.19441538,9.70690769 1.30003077,9.21275385 L1.30003077,9.29313846 C1.30003077,12.5009077 3.58295385,15.1772923 6.60456923,15.7899077 C6.05287692,15.9362923 5.46310769,16.0141385 4.86318462,16.0141385 C4.44010769,16.0141385 4.02718462,15.9769077 3.61341538,15.8982154 C4.46041538,18.5263692 6.89987692,20.4336 9.79541538,20.4945231 C7.52941538,22.2655231 4.67449231,23.3189846 1.57503077,23.3189846 C1.0428,23.3189846 0.521569231,23.2885231 -0.000507692308,23.2309846 C2.93310769,25.1111385 6.40826154,26.2026769 10.1474154,26.2026769 C22.3142615,26.2026769 28.9692615,16.1224462 28.9692615,7.38336923 L28.9489538,6.52706154 C30.2486462,5.59121538 31.3706462,4.42944615 32.2574154,3.09929231" id="Fill-1" fill="#393939" mask="url(#mask-2)"></path>
        </g>
    </g>
</svg>