<?xml version="1.0" encoding="UTF-8"?>
<svg width="36px" height="36px" viewBox="0 0 36 36" version="1.1" xmlns="http://www.w3.org/2000/svg" xmlns:xlink="http://www.w3.org/1999/xlink">
    <title>world-hover@2x</title>
    <g id="world-hover@2x" stroke="none" stroke-width="1" fill="none" fill-rule="evenodd">
        <path d="M11.6387,10.8677 L6.2417,10.8677 C8.2967,7.6547 10.2247,6.3697 13.8237,4.9557 C12.6667,6.8837 12.1527,8.6827 11.6387,10.8677 L11.6387,10.8677 Z M29.7587,10.8677 L24.3617,10.8677 C23.8477,8.5547 23.3327,7.0127 22.3057,4.9557 C25.7757,6.3697 27.7027,7.6547 29.7587,10.8677 L29.7587,10.8677 Z M24.3617,25.1327 L29.7587,25.1327 L29.5017,25.6467 C27.5747,28.4737 25.3897,29.8877 22.3057,31.1727 C23.3327,28.9887 23.8477,27.4457 24.3617,25.1327 L24.3617,25.1327 Z M6.2417,25.1327 L11.6387,25.1327 C12.1527,27.4457 12.6667,28.9887 13.8237,31.1727 C10.2247,29.7587 8.4257,28.3457 6.2417,25.1327 L6.2417,25.1327 Z M11.2527,22.8197 L5.0837,22.8197 L5.0837,22.5627 C4.5707,21.1487 4.3137,19.6067 4.3137,18.0647 C4.3137,16.2647 4.5707,14.8517 5.0837,13.1807 L11.2527,13.1807 C10.9957,14.8517 10.8677,16.3937 10.8677,18.0647 C10.8677,19.6067 10.9957,21.2777 11.2527,22.8197 L11.2527,22.8197 Z M18.0647,31.8157 C15.7507,31.8157 14.3367,26.9317 13.9517,25.1327 L22.0477,25.1327 C21.6627,26.9317 20.2487,31.8157 18.0647,31.8157 L18.0647,31.8157 Z M30.9157,13.4377 C31.5587,14.8517 31.8157,16.3937 31.8157,18.0647 C31.8157,19.7357 31.4297,21.1487 30.9157,22.8197 L24.7467,22.8197 C25.0037,21.2777 25.1327,19.6067 25.1327,18.0647 C25.1327,16.3937 25.0037,14.8517 24.7467,13.1807 L30.9157,13.1807 L30.9157,13.4377 Z M22.8197,18.0647 C22.8197,19.6067 22.6907,21.2777 22.5627,22.8197 L13.5667,22.8197 C13.3097,21.2777 13.1807,19.6067 13.1807,18.0647 C13.1807,16.3937 13.3097,14.8517 13.5667,13.1807 L22.5627,13.1807 C22.6907,14.8517 22.8197,16.3937 22.8197,18.0647 L22.8197,18.0647 Z M18.0647,4.3137 C20.2487,4.3137 21.6627,9.0687 22.0477,10.8677 L13.9517,10.8677 C14.3367,9.0687 15.7507,4.3137 18.0647,4.3137 L18.0647,4.3137 Z M1.9997,18.0647 C1.9997,26.8027 9.1977,33.9997 18.0647,33.9997 C26.8027,33.9997 33.9997,26.8027 33.9997,18.0647 C33.9997,9.1967 26.8027,1.9997 18.0647,1.9997 C9.1977,1.9997 1.9997,9.1967 1.9997,18.0647 L1.9997,18.0647 Z" id="Fill-1" fill="#24BC4B"></path>
    </g>
</svg>