<svg xmlns="http://www.w3.org/2000/svg" width="16" height="16" viewBox="0 0 16 16">
  <metadata><?xpacket begin="﻿" id="W5M0MpCehiHzreSzNTczkc9d"?>
<x:xmpmeta xmlns:x="adobe:ns:meta/" x:xmptk="Adobe XMP Core 5.6-c138 79.159824, 2016/09/14-01:09:01        ">
   <rdf:RDF xmlns:rdf="http://www.w3.org/1999/02/22-rdf-syntax-ns#">
      <rdf:Description rdf:about=""/>
   </rdf:RDF>
</x:xmpmeta>
                                                                                                    
                                                                                                    
                                                                                                    
                                                                                                    
                                                                                                    
                                                                                                    
                                                                                                    
                                                                                                    
                                                                                                    
                                                                                                    
                                                                                                    
                                                                                                    
                                                                                                    
                                                                                                    
                                                                                                    
                                                                                                    
                                                                                                    
                                                                                                    
                                                                                                    
                                                                                                    
                           
<?xpacket end="w"?></metadata>
<defs>
    <style>
      .cls-1 {
        fill: #15a04a;
        fill-rule: evenodd;
      }
    </style>
  </defs>
  <path id="Fill_1" data-name="Fill 1" class="cls-1" d="M681,557.032A8,8,0,1,0,689.032,549,8.023,8.023,0,0,0,681,557.032Zm13.88-3.6h-2.7a11.5,11.5,0,0,0-1.028-2.956A6.805,6.805,0,0,1,694.879,553.434Zm-2.7,7.132h2.7l-0.129.257a7.29,7.29,0,0,1-3.6,2.763A12.888,12.888,0,0,0,692.18,560.566Zm-9.06,0h2.7a10.67,10.67,0,0,0,1.092,3.02A7.057,7.057,0,0,1,683.12,560.566Zm2.506-1.156h-3.085v-0.129a6.644,6.644,0,0,1-.385-2.249,7.8,7.8,0,0,1,.385-2.442h3.085a15.587,15.587,0,0,0-.193,2.442A14.781,14.781,0,0,0,685.626,559.41Zm3.406,4.5c-1.157,0-1.864-2.442-2.057-3.342h4.048C690.831,561.466,690.124,563.908,689.032,563.908Zm6.425-9.189a5.5,5.5,0,0,1,.45,2.313,7.778,7.778,0,0,1-.45,2.378h-3.084a14.9,14.9,0,0,0,.193-2.378,15.709,15.709,0,0,0-.193-2.442h3.084v0.129Zm-4.048,2.313c0,0.771-.064,1.607-0.128,2.378h-4.5a14.781,14.781,0,0,1-.193-2.378,15.587,15.587,0,0,1,.193-2.442h4.5C691.345,555.426,691.409,556.2,691.409,557.032Zm-2.377-6.875c1.092,0,1.8,2.377,1.991,3.277h-4.048C687.168,552.534,687.875,550.157,689.032,550.157Zm-3.213,3.277h-2.7a6.729,6.729,0,0,1,3.791-2.956A9.637,9.637,0,0,0,685.819,553.434Z" transform="translate(-681 -549)"/>
</svg>
