<svg xmlns="http://www.w3.org/2000/svg" viewBox="0 0 157.6 39.96"><defs><style>.cls-1{fill:#008451;}.cls-2{fill:#808083;}.cls-3{fill:#89c54f;}</style></defs><title>jal_logo_zals</title><g id="Layer_2" data-name="Layer 2"><g id="ikonas"><path class="cls-1" d="M52,27.29c-.49,0-1.83-.37-1.83-1.57a1.35,1.35,0,0,1,1.52-1.31,2.26,2.26,0,0,1,2.09,1.42,2.67,2.67,0,0,0,1.37-1.66c.54-1.55.44-7,.39-9.9,0-.66,0-1.2,0-1.55V10.89c0-.85,0-5.14-.08-6.22,0-.54-.23-.86-1.25-.86H53.06c-.15,0-.23-.06-.23-.17V2.93c0-.14,0-.23.23-.23h.37c.5,0,1.53.07,3.4.07,1.57,0,2.49,0,3-.06l.51,0c.11,0,.25,0,.25.2v.66c0,.18-.07.25-.25.25H59.07c-.67,0-.91.18-.93.72s-.08,3.88-.08,7v1.21c0,2.35-.05,4.32-.08,5.5,0,.5,0,.86,0,1a8.08,8.08,0,0,1-1,4.42c-1,1.74-2.83,3.6-4.94,3.6ZM79.27,21.6l-.53,0c-.47,0-1.18-.06-2.63-.06s-2.33,0-2.93.05l-.78,0c-.16,0-.25-.1-.25-.28v-.6c0-.21.14-.23.28-.23h.66c.37,0,.6-.07.71-.21a.87.87,0,0,0,0-.73c-.21-1-1.3-4.34-1.66-5.37l-6.44,0c-.22.62-1.67,4.63-1.8,5.18l0,.18a3.06,3.06,0,0,0,0,.39c0,.35.3.54.85.54h1.24c.13,0,.31,0,.31.23v.6c0,.19-.09.28-.25.28l-.58,0c-.55,0-1.38-.06-2.42-.06-1.33,0-2,0-2.44.06l-.43,0c-.16,0-.23-.08-.23-.25v-.63a.23.23,0,0,1,.25-.23h.92c.72,0,1.1-.3,1.49-1.19.17-.4,2.09-5.23,2.87-7.45l1-2.59c.68-1.83,1.45-3.9,1.59-4.31l0-.07a.94.94,0,0,0,0-.79.72.72,0,0,1-.19-.36s0-.21.27-.28a5.3,5.3,0,0,0,2.17-1.3h0l.05-.05c.11-.11.19-.2.32-.2s.25.21.33.48c.24.8.84,2.57,1.47,4.45s1.33,3.93,1.59,4.8c.59,2,2.3,6.92,2.68,7.71a2,2,0,0,0,1.75,1.16h.87c.22,0,.25.14.25.23v.66c0,.2-.17.23-.31.23ZM69.18,5.11c-.05,0-.15.09-.25.37s-2.64,7.1-2.82,7.74l5.78-.05c-.28-.76-2.42-7.36-2.54-7.71l0-.12c0-.1-.09-.22-.12-.22Z"/><path class="cls-1" d="M46.7,39.95H0L23.11,0h.08L46.51,39.67ZM20.54,31H15.41l0,9c.71-1.22,1.14-2,1.63-2.8Zm5.2-8.9c-1.39,0-3.72,0-5.2,0l0,8.91Zm5.16-8.83c-1.79,0-3.36,0-5.16,0v8.84h0l4.92-8.46Z"/><path class="cls-2" d="M52.54,33.48,50.2,39.79h.88l.68-1.89h2.48l.67,1.89h.93l-2.35-6.31ZM52,37.17l1-2.78,1,2.78Zm10,1.14-.14.52a2.76,2.76,0,0,0-.07-.27l-.08-.24-1.56-4.83H58.9v6.31h.79V34.41a2.47,2.47,0,0,0,.06.3,2.35,2.35,0,0,0,.08.25l1.59,4.83h.8L63.85,35l.09-.28c0-.07,0-.16.07-.28v5.38h.83V33.48H63.61Zm6-3.26a1.87,1.87,0,0,0-1.51.65,2.8,2.8,0,0,0-.55,1.84,2.58,2.58,0,0,0,.56,1.76,1.89,1.89,0,0,0,1.5.64,2.09,2.09,0,0,0,1.35-.43,1.88,1.88,0,0,0,.66-1.2H69.2a1.08,1.08,0,0,1-1.18.93,1.24,1.24,0,0,1-1-.4,1.64,1.64,0,0,1-.35-1.12H70v-.34a2.5,2.5,0,0,0-.54-1.72A2,2,0,0,0,67.95,35Zm-1.25,2a1.36,1.36,0,0,1,.34-1,1.28,1.28,0,0,1,.94-.35,1.19,1.19,0,0,1,.92.35,1.42,1.42,0,0,1,.32,1Zm10.39-1.37a1.35,1.35,0,0,0-1.28-.62,1.82,1.82,0,0,0-1.48.72,1.36,1.36,0,0,0-1.25-.72,1.62,1.62,0,0,0-1.43.76V35.2h-.74v4.59h.77V37.08a1.4,1.4,0,0,1,.31-1,1.1,1.1,0,0,1,.86-.35.74.74,0,0,1,.69.3,1.84,1.84,0,0,1,.16.9v2.82h.77V37.08a1.41,1.41,0,0,1,.31-1,1.11,1.11,0,0,1,.87-.35.75.75,0,0,1,.69.3,1.84,1.84,0,0,1,.16.9v2.82h.77V36.9a6.14,6.14,0,0,0,0-.72A1.19,1.19,0,0,0,77.08,35.71ZM80.7,35a1.69,1.69,0,0,0-1.48.79V33.48h-.76v6.31h.76v-.58a1.77,1.77,0,0,0,1.49.73,1.81,1.81,0,0,0,1.46-.66,2.68,2.68,0,0,0,.55-1.77,2.73,2.73,0,0,0-.55-1.81A1.81,1.81,0,0,0,80.7,35Zm.84,3.76a1.22,1.22,0,0,1-1,.45,1.18,1.18,0,0,1-1-.46,2.17,2.17,0,0,1-.35-1.33c0-1.15.46-1.73,1.36-1.73a1.19,1.19,0,0,1,1,.47,2.23,2.23,0,0,1,.35,1.35A1.89,1.89,0,0,1,81.55,38.81Zm4-3.76A1.87,1.87,0,0,0,84,35.7a2.77,2.77,0,0,0-.55,1.84A2.59,2.59,0,0,0,84,39.3a1.9,1.9,0,0,0,1.51.64,2.09,2.09,0,0,0,1.35-.43,1.86,1.86,0,0,0,.66-1.2h-.76a1.08,1.08,0,0,1-1.18.93,1.24,1.24,0,0,1-1-.4,1.63,1.63,0,0,1-.35-1.12h3.32v-.34A2.5,2.5,0,0,0,87,35.65,2,2,0,0,0,85.51,35Zm-1.26,2a1.35,1.35,0,0,1,.35-1,1.27,1.27,0,0,1,.94-.35,1.19,1.19,0,0,1,.92.35,1.42,1.42,0,0,1,.32,1Zm5-1.06V35.2h-.75v4.59h.77V37.23q0-1.32,1.27-1.32h.18V35.1h-.2A1.29,1.29,0,0,0,89.21,36Zm6.54-1a2.07,2.07,0,0,0-1.62.64,3.1,3.1,0,0,0,0,3.61,2.37,2.37,0,0,0,3.24,0,3.11,3.11,0,0,0,0-3.61A2.08,2.08,0,0,0,95.75,35Zm1,3.76a1.25,1.25,0,0,1-1,.45,1.27,1.27,0,0,1-1-.45,2.54,2.54,0,0,1,0-2.62,1.27,1.27,0,0,1,1-.45,1.25,1.25,0,0,1,1,.45,2.57,2.57,0,0,1,0,2.62Zm3.3-5.43c-.69,0-1,.38-1,1.15v.68h-.75v.62h.75v4h.77v-4h.83v-.62h-.83v-.39a1.15,1.15,0,0,1,.1-.56.4.4,0,0,1,.39-.16l.34,0v-.69l-.28,0ZM106,37.69c0,.29,0,.51,0,.66a1.12,1.12,0,0,1-.08.36.9.9,0,0,1-.88.48.94.94,0,0,1-.77-.28A1.42,1.42,0,0,1,104,38v-.26h-.82V38Q103.19,40,105,40a1.81,1.81,0,0,0,1.38-.47,2,2,0,0,0,.44-1.44V33.48H106Zm3.81-4.22-2.35,6.31h.88L109,37.9h2.48l.67,1.89h.94l-2.35-6.31Zm-.53,3.69,1-2.78,1,2.78Zm12,1.33-1.38-5H119l-1.34,5-1.28-5h-.84l1.64,6.31H118l1.37-5.21,1.44,5.21h.84l1.68-6.31h-.82ZM126,35a2.06,2.06,0,0,0-1.62.64,3.11,3.11,0,0,0,0,3.61,2.38,2.38,0,0,0,3.25,0,3.11,3.11,0,0,0,0-3.61A2.08,2.08,0,0,0,126,35Zm1,3.76a1.43,1.43,0,0,1-2.09,0,2.53,2.53,0,0,1,0-2.62,1.43,1.43,0,0,1,2.09,0,2.57,2.57,0,0,1,0,2.62ZM129.85,36V35.2h-.75v4.59h.77V37.23q0-1.32,1.27-1.32h.18V35.1h-.2A1.28,1.28,0,0,0,129.85,36ZM132,39.79h.77V33.48H132Zm5.24-4a1.93,1.93,0,0,0-3,0,2.72,2.72,0,0,0-.55,1.8,2.65,2.65,0,0,0,.55,1.77,1.81,1.81,0,0,0,1.46.66,1.84,1.84,0,0,0,1.49-.73v.58H138V33.48h-.75Zm-.34,3a1.2,1.2,0,0,1-1,.46,1.22,1.22,0,0,1-1-.45,1.89,1.89,0,0,1-.37-1.24,2.2,2.2,0,0,1,.36-1.35,1.19,1.19,0,0,1,1-.47q1.37,0,1.37,1.73A2.12,2.12,0,0,1,136.93,38.79Zm6.23-.09-.9-3.5h-.89l-.9,3.5-1-3.5h-.81l1.37,4.58h.78l1-3.53,1,3.53h.78L145,35.21h-.79Zm2.45,1.08h.77V35.2h-.77Zm0-5.44h.77v-.88h-.77Zm5.22,1.41a1.93,1.93,0,0,0-3,0,2.73,2.73,0,0,0-.55,1.8,2.67,2.67,0,0,0,.55,1.77,1.8,1.8,0,0,0,1.46.66,1.83,1.83,0,0,0,1.49-.73v.58h.75V33.48h-.75Zm-.33,3a1.2,1.2,0,0,1-1,.46,1.23,1.23,0,0,1-1-.45,1.91,1.91,0,0,1-.37-1.24,2.2,2.2,0,0,1,.36-1.35,1.18,1.18,0,0,1,1-.47q1.37,0,1.37,1.73A2.12,2.12,0,0,1,150.5,38.79Zm6.2-1.42a2.5,2.5,0,0,0-.54-1.72,2,2,0,0,0-1.53-.6,1.87,1.87,0,0,0-1.52.65,2.79,2.79,0,0,0-.55,1.84,2.59,2.59,0,0,0,.56,1.76,1.9,1.9,0,0,0,1.51.64,2.08,2.08,0,0,0,1.35-.43,1.88,1.88,0,0,0,.66-1.2h-.77a1.07,1.07,0,0,1-1.18.93,1.24,1.24,0,0,1-1-.4,1.63,1.63,0,0,1-.35-1.12h3.32Zm-3.33-.3a1.35,1.35,0,0,1,.35-1,1.26,1.26,0,0,1,.93-.35,1.2,1.2,0,0,1,.92.35,1.43,1.43,0,0,1,.32,1Z"/><path class="cls-3" d="M126.39,21.91c-.31,0-.47-.29-.59-.58L123.74,16l-.21-.58c-.35-1-1-2.74-1.13-3.05-.32-.73-.57-1-1-1h-.53c-.2,0-.2-.21-.2-.3v-.47c0-.23.1-.25.33-.25l.34,0c.32,0,.85.06,1.87.06s1.59,0,2-.06l.4,0c.23,0,.31.06.31.25v.47c0,.11,0,.3-.23.3h-.52a.41.41,0,0,0-.43.46,21.47,21.47,0,0,0,.84,3.09c.15.49,1.29,3.53,1.57,4.08l0,0c.8-2,2.26-5.63,2.49-6.53a1.11,1.11,0,0,0-.05-.92.46.46,0,0,0-.38-.17h-.53c-.1,0-.15-.11-.15-.3v-.47c0-.11,0-.25.2-.25l.5,0c.37,0,.87.06,1.6.06s1.2,0,1.54-.06l.36,0c.24,0,.28,0,.28.28v.45c0,.18,0,.3-.18.3h-.5a1,1,0,0,0-.79.28,27,27,0,0,0-2.1,4.2c-.32.82-2.28,5.24-2.38,5.41-.21.38-.36.63-.67.63Zm22-.08a2,2,0,0,1-1.91-1.8,5.4,5.4,0,0,1-2.61,1.64,4.94,4.94,0,0,1-1.57.16c-.56,0-1.62-.46-1.62-2.23,0-1.43.8-2.4,2.66-3.22a17.4,17.4,0,0,0,3-1.52V13.21l0-.21a2.47,2.47,0,0,0-.34-1.24,2,2,0,0,0-1.55-.56,2.92,2.92,0,0,0-1.68.54c-.25.23-.2.48-.16.78a2.67,2.67,0,0,1,0,.41c0,1.07-.44,1.54-1.44,1.54-.46,0-.68-.28-.68-.88a3.34,3.34,0,0,1,1.84-2.51,5.88,5.88,0,0,1,3.24-.93,2.73,2.73,0,0,1,2.14.72,2.35,2.35,0,0,1,.59,1.9v5.58c0,1.73.43,1.93.75,1.93a1.18,1.18,0,0,0,.89-.38c.07-.09.13-.16.21-.16a.2.2,0,0,1,.12,0l.26.21c.13.13.12.3,0,.53a2.22,2.22,0,0,1-2.09,1.31Zm-2.13-6.07a7.3,7.3,0,0,1-.9.49c-1.14.55-2.55,1.24-2.55,2.86a1.26,1.26,0,0,0,1.33,1.41c.77,0,2.12-.92,2.12-1.59V15.76ZM116.4,21.83a2.73,2.73,0,0,1-2.6-2.28c0-.68,0-1.85.05-2.72,0-.51,0-.91,0-1v-.58c0-.47,0-2.24.05-3.35l-1.56,0c-.27,0-.44-.13-.44-.36s.16-.31.44-.48a11.82,11.82,0,0,0,3-3.33.39.39,0,0,1,.41-.29c.2,0,.3.15.3.44L116,10.49l3.62,0a.24.24,0,0,1,.21.11.19.19,0,0,1,0,.19l-.26.91a.26.26,0,0,1-.28.24h-3.4c0,1.16,0,2.43,0,3.65v2.63c0,2.11,1,2.28,1.33,2.28a3.77,3.77,0,0,0,1.72-.34.32.32,0,0,1,.17-.05.26.26,0,0,1,.2.12l.13.24a.25.25,0,0,1-.06.34,4.42,4.42,0,0,1-3,1.06Zm-7,0a2,2,0,0,1-1.91-1.8,5.38,5.38,0,0,1-2.6,1.64,4.94,4.94,0,0,1-1.57.16c-.56,0-1.62-.46-1.62-2.23,0-1.43.8-2.4,2.66-3.22a17.2,17.2,0,0,0,3-1.52V13.21l0-.19a2.53,2.53,0,0,0-.34-1.26,2,2,0,0,0-1.55-.56,2.93,2.93,0,0,0-1.68.54c-.25.23-.21.48-.16.78a2.65,2.65,0,0,1,0,.41c0,1.07-.45,1.54-1.44,1.54-.46,0-.67-.28-.67-.88a3.33,3.33,0,0,1,1.84-2.51,5.86,5.86,0,0,1,3.23-.93,2.73,2.73,0,0,1,2.14.72,2.35,2.35,0,0,1,.6,1.9v5.58c0,1.73.43,1.93.75,1.93a1.19,1.19,0,0,0,.89-.38c.08-.1.13-.16.21-.16a.18.18,0,0,1,.11,0l.26.21c.13.13.12.3,0,.53a2.23,2.23,0,0,1-2.09,1.31Zm-2.12-6.07a7.4,7.4,0,0,1-.9.49c-1.14.55-2.55,1.24-2.55,2.86a1.26,1.26,0,0,0,1.33,1.41c.77,0,2.12-.92,2.12-1.59V15.76ZM99.07,21.6h0c-.32,0-2.3-.05-4.74-.05s-4.93,0-6.35,0H85.61l-.56,0-.47,0c-.21,0-.25-.08-.25-.23v-.66c0-.15,0-.23.22-.23h1.27c1,0,1.09-.36,1.09-.67s0-1.14,0-2.37c0-2.2.06-5.27.06-6.3V9.67c0-1.74-.05-4.49-.08-4.95-.06-.69-.19-.91-.93-.91H84.74c-.23,0-.23-.23-.23-.31V2.93c0-.14,0-.23.23-.23h.38c.5,0,1.44.07,3,.07,2,0,3.05,0,3.58-.07h.32c.23,0,.27.1.27.25v.61c0,.18-.1.25-.3.25H90.45c-.77,0-.88.21-.88,1,0,.1,0,.54,0,1.14,0,1.4-.06,3.73-.06,5v2.27c0,1,0,6.19.08,7.22h.17l3.69,0c1.44,0,2.4,0,2.71-.06,1.51-.23,3.09-3.35,3.47-4.4,0-.08.09-.15.18-.15l.09,0,.42.16c.11.07.11.12.08.28s-1.12,4.47-1.29,5.25v0Zm40.24,0-.44,0c-.5,0-1.31-.06-2.09-.06-1.07,0-1.89,0-2.38.06l-.47,0a.22.22,0,0,1-.25-.25v-.53c0-.22.16-.25.3-.25h1.29c.26,0,.35-.07.38-.49,0-.79,0-1.6,0-2.4V13.81c0-.81-.1-1.32-1.44-1.54-.16,0-.27-.07-.27-.23v-.23c0-.12.1-.18.21-.23A21.17,21.17,0,0,0,137,10.3a1.12,1.12,0,0,1,.52-.16.16.16,0,0,1,.13.05.39.39,0,0,1,0,.31c-.05.44-.05,2.14-.05,4.29v2.87c0,1,0,2,0,2.26.05.51.13.65.38.65h1.21c.22,0,.31.08.31.28v.45c0,.22-.08.31-.28.31ZM136,7.19a1.54,1.54,0,0,1-1.49-1.41,1.5,1.5,0,0,1,1.65-1.41,1.34,1.34,0,0,1,1.41,1.33A1.46,1.46,0,0,1,136,7.19Z"/><path class="cls-3" d="M157.6,6a3.71,3.71,0,0,1-7.42,0,3.56,3.56,0,0,1,3.71-3.59A3.47,3.47,0,0,1,157.6,6Zm-.67,0a3,3,0,1,0-6.08,0,3,3,0,1,0,6.08,0Zm-4.37-.66V4.43c0-.19-.09-.28-.34-.28h-.1a0,0,0,0,1,0,0V3.91s0,0,0,0l.76,0,1.06,0a1.81,1.81,0,0,1,1.21.36.86.86,0,0,1,.31.67,1.2,1.2,0,0,1-1.08,1.17v0a.46.46,0,0,1,.25.19,8.16,8.16,0,0,1,.51.75,2.33,2.33,0,0,0,.53.62.8.8,0,0,0,.47.11s.06,0,.06,0V8s0,0-.06,0l-.48,0L155,8a1.7,1.7,0,0,1-.27-.33c0-.06-.37-.55-.44-.67a3.73,3.73,0,0,0-.41-.6.54.54,0,0,0-.4-.23h-.25v.3c0,.34,0,.93,0,1s0,.23.2.23h.25s0,0,0,0V8s0,0,0,0l-.84,0-.78,0C152.06,8,152,8,152,8V7.83s0-.06,0-.06h.14c.2,0,.33,0,.33-.33Zm.72.56a2.55,2.55,0,0,0,.41,0,1,1,0,0,0,1-.94.8.8,0,0,0-.31-.61,1.28,1.28,0,0,0-.81-.23,2.31,2.31,0,0,0-.31,0Z"/></g></g></svg>