<svg width="42" height="42" viewBox="0 0 42 42" fill="none" xmlns="http://www.w3.org/2000/svg">
<path d="M27.927 20.1789L19.2058 13.8393C18.8857 13.6073 18.4609 13.5723 18.1101 13.7526C17.7565 13.9315 17.5356 14.2949 17.5356 14.6877V27.3627C17.5356 27.7596 17.7565 28.1216 18.1101 28.3005C18.2596 28.376 18.4231 28.4137 18.5881 28.4137C18.8033 28.4137 19.0213 28.3452 19.2058 28.2097L27.927 21.8756C28.2023 21.673 28.363 21.3599 28.363 21.0273C28.3644 20.689 28.1995 20.3774 27.927 20.1789Z" fill="white"/>
<path d="M21.0007 0.00201416C9.40042 0.00201416 0 9.40243 0 21.0027C0 32.5988 9.40042 41.9964 21.0007 41.9964C32.5982 41.9964 42 32.5974 42 21.0027C42.0014 9.40243 32.5982 0.00201416 21.0007 0.00201416ZM21.0007 38.4926C11.3403 38.4926 3.50804 30.6645 3.50804 21.0027C3.50804 11.3451 11.3403 3.50726 21.0007 3.50726C30.6597 3.50726 38.4906 11.3437 38.4906 21.0027C38.492 30.6645 30.6597 38.4926 21.0007 38.4926Z" fill="white"/>
</svg>
