<svg width="36" height="36" viewBox="0 0 36 36" fill="none" xmlns="http://www.w3.org/2000/svg">
<mask id="mask0" mask-type="alpha" maskUnits="userSpaceOnUse" x="0" y="0" width="36" height="36">
<rect width="36" height="35.027" fill="#C4C4C4"/>
</mask>
<g mask="url(#mask0)">
<path d="M33.5631 8.75676C31.5086 8.75676 29.6129 8.09453 28.0907 6.97736C26.3448 5.69668 25.0904 3.81808 24.6475 1.65284C24.5378 1.11785 24.4787 0.565769 24.4731 0H18.6041V15.6034L18.5971 24.1502C18.5971 26.4351 17.0678 28.3726 14.9479 29.054C14.3326 29.2517 13.6682 29.3454 12.9763 29.3085C12.0932 29.2613 11.2656 29.002 10.5463 28.5833C9.01559 27.6926 7.97778 26.0767 7.94965 24.2282C7.90536 21.3391 10.3058 18.9837 13.273 18.9837C13.8587 18.9837 14.4212 19.0767 14.9479 19.2457V14.9809V13.4478C14.3924 13.3677 13.8271 13.326 13.2554 13.326C10.0077 13.326 6.9702 14.6395 4.79895 17.0059C3.15786 18.7942 2.17348 21.0757 2.02161 23.4681C1.82262 26.611 3.00458 29.5985 5.29676 31.8028C5.63356 32.1264 5.98723 32.4267 6.35707 32.7038C8.32231 34.1753 10.7249 34.973 13.2554 34.973C13.8271 34.973 14.3924 34.9319 14.9479 34.8519C17.3118 34.5112 19.4929 33.4583 21.2141 31.8028C23.3291 29.7689 24.4977 27.0686 24.5104 24.1946L24.4801 11.4317C25.4891 12.189 26.5923 12.8157 27.7764 13.3021C29.6179 14.058 31.5704 14.4411 33.58 14.4404V10.294V8.75539C33.5814 8.75676 33.5645 8.75676 33.5631 8.75676V8.75676Z" fill="black"/>
</g>
</svg>
